SourceSansPro_1.ufo
<glyph name="longs" format="1">
	<unicode hex="017F"/>
	<advance width="290"/>
	<outline>
		<contour>
			<point x="58" y="0" type="line"/>
			<point x="230" y="0" type="line"/>
			<point x="230" y="512" type="line" smooth="yes"/>
			<point x="230" y="559"/>
			<point x="250" y="574"/>
			<point x="282" y="574" type="curve" smooth="yes"/>
			<point x="298" y="574"/>
			<point x="316" y="570"/>
			<point x="332" y="564" type="curve"/>
			<point x="362" y="690" type="line"/>
			<point x="340" y="698"/>
			<point x="302" y="708"/>
			<point x="256" y="708" type="curve" smooth="yes"/>
			<point x="108" y="708"/>
			<point x="58" y="613"/>
			<point x="58" y="506" type="curve" smooth="yes"/>
		</contour>
	</outline>
</glyph>
<glyph name="arrowdblup" format="1">
	<unicode hex="21D1"/>
	<advance width="616"/>
	<outline>
		<contour>
			<point x="240" y="-26" type="line"/>
			<point x="376" y="-26" type="line"/>
			<point x="376" y="300" type="line"/>
			<point x="486" y="170" type="line"/>
			<point x="578" y="250" type="line"/>
			<point x="310" y="530" type="line"/>
			<point x="306" y="530" type="line"/>
			<point x="38" y="250" type="line"/>
			<point x="130" y="170" type="line"/>
			<point x="240" y="300" type="line"/>
		</contour>
	</outline>
</glyph>
<glyph name="arrowdbldown" format="1">
  <advance width="616"/>
  <unicode hex="21D3"/>
  <outline>
    <contour>
      <point x="306" y="-26" type="line"/>
      <point x="310" y="-26" type="line"/>
      <point x="578" y="254" type="line"/>
      <point x="486" y="334" type="line"/>
      <point x="376" y="204" type="line"/>
      <point x="376" y="530" type="line"/>
      <point x="240" y="530" type="line"/>
      <point x="240" y="204" type="line"/>
      <point x="130" y="334" type="line"/>
      <point x="38" y="254" type="line"/>
    </contour>
  </outline>
</glyph>
<glyph name="existential" format="1">
  <advance width="556"/>
  <unicode hex="2203"/>
  <outline>
    <contour>
      <point x="484" y="0" type="line"/>
      <point x="484" y="650" type="line"/>
      <point x="64" y="650" type="line"/>
      <point x="64" y="506" type="line"/>
      <point x="312" y="506" type="line"/>
      <point x="312" y="404" type="line"/>
      <point x="100" y="404" type="line"/>
      <point x="100" y="260" type="line"/>
      <point x="312" y="260" type="line"/>
      <point x="312" y="144" type="line"/>
      <point x="54" y="144" type="line"/>
      <point x="54" y="0" type="line"/>
    </contour>
  </outline>
</glyph>
<glyph name="Aie" format="1">
  <advance width="854"/>
  <outline>
    <component base="AE"/>
    <contour>
      <point x="540" y="694" type="move" name="aboveUC"/>
    </contour>
  </outline>
</glyph>
<glyph name="Alpha.sc" format="1">
	<advance width="516"/>
	<outline>
		<component base="A.sc"/>
		<contour>
			<point name="aboveLC" x="254" y="564" type="move"/>
		</contour>
		<contour>
			<point name="belowLC" x="254" y="-20" type="move"/>
		</contour>
	</outline>
</glyph>
<glyph name="Alphalatin" format="1">
  <advance width="674"/>
  <outline>
    <contour>
      <point x="326" y="0" type="move" name="ogonekUC"/>
    </contour>
    <contour>
      <point x="326" y="-22" type="move" name="belowLC"/>
    </contour>
    <contour>
      <point x="326" y="672" type="move" name="aboveUC"/>
    </contour>
    <contour>
      <point x="341" y="136" type="curve" smooth="yes"/>
      <point x="267" y="136"/>
      <point x="221" y="189"/>
      <point x="221" y="328" type="curve" smooth="yes"/>
      <point x="221" y="464"/>
      <point x="277" y="514"/>
      <point x="335" y="514" type="curve" smooth="yes"/>
      <point x="370" y="514"/>
      <point x="412" y="504"/>
      <point x="445" y="476" type="curve"/>
      <point x="445" y="192" type="line"/>
      <point x="416" y="149"/>
      <point x="383" y="136"/>
    </contour>
    <contour>
      <point x="305" y="-12" type="curve" smooth="yes"/>
      <point x="361" y="-12"/>
      <point x="428" y="19"/>
      <point x="474" y="70" type="curve"/>
      <point x="478" y="70" type="line"/>
      <point x="479" y="68" type="line"/>
      <point x="501" y="18"/>
      <point x="540" y="-12"/>
      <point x="601" y="-12" type="curve" smooth="yes"/>
      <point x="638" y="-12"/>
      <point x="665" y="-2"/>
      <point x="682" y="6" type="curve"/>
      <point x="663" y="137" type="line"/>
      <point x="657" y="136"/>
      <point x="652" y="136"/>
      <point x="646" y="136" type="curve" smooth="yes"/>
      <point x="635" y="136"/>
      <point x="619" y="145"/>
      <point x="619" y="181" type="curve" smooth="yes"/>
      <point x="619" y="643" type="line"/>
      <point x="490" y="643" type="line"/>
      <point x="477" y="579" type="line"/>
      <point x="472" y="579" type="line"/>
      <point x="423" y="635"/>
      <point x="371" y="659"/>
      <point x="310" y="659" type="curve" smooth="yes"/>
      <point x="179" y="659"/>
      <point x="44" y="533"/>
      <point x="44" y="323" type="curve" smooth="yes"/>
      <point x="44" y="116"/>
      <point x="146" y="-12"/>
    </contour>
  </outline>
</glyph>
<glyph name="Beta.sc" format="1">
	<advance width="554"/>
	<outline>
		<component base="B.sc"/>
		<contour>
			<point name="aboveLC" x="295" y="564" type="move"/>
		</contour>
		<contour>
			<point name="belowLC" x="304" y="-20" type="move"/>
		</contour>
	</outline>
</glyph>
<glyph name="Betalatin" format="1">
  <advance width="612"/>
  <outline>
    <contour>
      <point x="72" y="-188" type="line"/>
      <point x="222" y="-188" type="line"/>
      <point x="236" y="0" type="line"/>
      <point x="225" y="108" type="line"/>
      <point x="72" y="0" type="line"/>
    </contour>
    <component base="B"/>
  </outline>
</glyph>
<glyph name="Bhook" format="1">
  <advance width="772"/>
  <outline>
    <contour>
      <point x="404" y="132" type="line"/>
      <point x="404" y="270" type="line"/>
      <point x="474" y="270" type="line" smooth="yes"/>
      <point x="542" y="270"/>
      <point x="574" y="252"/>
      <point x="574" y="204" type="curve" smooth="yes"/>
      <point x="574" y="156"/>
      <point x="542" y="132"/>
      <point x="474" y="132" type="curve" smooth="yes"/>
    </contour>
    <contour>
      <point x="232" y="0" type="line"/>
      <point x="486" y="0" type="line" smooth="yes"/>
      <point x="626" y="0"/>
      <point x="742" y="58"/>
      <point x="742" y="192" type="curve" smooth="yes"/>
      <point x="742" y="278"/>
      <point x="692" y="326"/>
      <point x="630" y="344" type="curve"/>
      <point x="630" y="348" type="line"/>
      <point x="680" y="368"/>
      <point x="712" y="432"/>
      <point x="712" y="488" type="curve" smooth="yes"/>
      <point x="712" y="624"/>
      <point x="588" y="662"/>
      <point x="372" y="662" type="curve" smooth="yes"/>
      <point x="123" y="662"/>
      <point x="24" y="566"/>
      <point x="24" y="432" type="curve" smooth="yes"/>
      <point x="24" y="350"/>
      <point x="62" y="302"/>
      <point x="130" y="270" type="curve"/>
      <point x="200" y="378" type="line"/>
      <point x="174" y="393"/>
      <point x="160" y="413"/>
      <point x="160" y="446" type="curve" smooth="yes"/>
      <point x="160" y="490"/>
      <point x="190" y="524"/>
      <point x="292" y="524" type="curve" smooth="yes"/>
      <point x="400" y="524" type="line" smooth="yes"/>
      <point x="518" y="524"/>
      <point x="544" y="504"/>
      <point x="544" y="462" type="curve" smooth="yes"/>
      <point x="544" y="422"/>
      <point x="518" y="396"/>
      <point x="462" y="396" type="curve" smooth="yes"/>
      <point x="404" y="396" type="line"/>
      <point x="404" y="570" type="line"/>
      <point x="232" y="570" type="line"/>
    </contour>
    <contour>
      <point x="460" y="672" type="move" name="aboveUC"/>
    </contour>
    <contour>
      <point x="475" y="-22" type="move" name="belowLC"/>
    </contour>
  </outline>
</glyph>
<glyph name="Bhook.sc" format="1">
  <advance width="702"/>
  <outline>
    <contour>
      <point x="112" y="243" type="curve"/>
      <point x="162" y="315" type="line"/>
      <point x="147" y="326"/>
      <point x="137" y="339"/>
      <point x="137" y="364" type="curve" smooth="yes"/>
      <point x="137" y="387"/>
      <point x="155" y="408"/>
      <point x="185" y="408" type="curve" smooth="yes"/>
      <point x="352" y="408" type="line"/>
      <point x="435" y="532" type="line"/>
      <point x="220" y="532" type="line" smooth="yes"/>
      <point x="107" y="532"/>
      <point x="34" y="469"/>
      <point x="34" y="373" type="curve" smooth="yes"/>
      <point x="34" y="310"/>
      <point x="60" y="266"/>
    </contour>
    <component base="B.sc" xOffset="148"/>
    <contour>
      <point x="452.0" y="-22.0" type="move" name="belowLC"/>
    </contour>
    <contour>
      <point x="443.0" y="564.0" type="move" name="aboveUC"/>
    </contour>
  </outline>
</glyph>
<glyph name="Chi.sc" format="1">
	<advance width="530"/>
	<outline>
		<component base="X.sc"/>
		<contour>
			<point name="aboveUC" x="266" y="564" type="move"/>
		</contour>
	</outline>
</glyph>
<glyph name="Chilatin" format="1">
  <advance width="588"/>
  <outline>
    <contour>
      <point x="10" y="-188" type="line"/>
      <point x="194" y="-188" type="line"/>
      <point x="242" y="-39" type="line" smooth="yes"/>
      <point x="256" y="5"/>
      <point x="270" y="48"/>
      <point x="284" y="100" type="curve"/>
      <point x="288" y="100" type="line"/>
      <point x="304" y="48"/>
      <point x="318" y="5"/>
      <point x="334" y="-39" type="curve" smooth="yes"/>
      <point x="386" y="-188" type="line"/>
      <point x="578" y="-188" type="line"/>
      <point x="402" y="232" type="line"/>
      <point x="568" y="650" type="line"/>
      <point x="384" y="650" type="line"/>
      <point x="346" y="513" type="line" smooth="yes"/>
      <point x="334" y="474"/>
      <point x="320" y="428"/>
      <point x="306" y="374" type="curve"/>
      <point x="302" y="374" type="line"/>
      <point x="284" y="428"/>
      <point x="270" y="474"/>
      <point x="256" y="513" type="curve" smooth="yes"/>
      <point x="212" y="650" type="line"/>
      <point x="20" y="650" type="line"/>
      <point x="186" y="242" type="line"/>
    </contour>
  </outline>
</glyph>
<glyph name="Chook" format="1">
	<advance width="586"/>
	<outline>
		<contour>
			<point x="412" y="570" type="curve"/>
			<point x="560" y="576" type="line"/>
			<point x="545" y="594"/>
			<point x="530" y="616"/>
			<point x="530" y="644" type="curve" smooth="yes"/>
			<point x="530" y="676"/>
			<point x="552" y="690"/>
			<point x="580" y="690" type="curve" smooth="yes"/>
			<point x="590" y="690"/>
			<point x="596" y="688"/>
			<point x="606" y="684" type="curve"/>
			<point x="636" y="810" type="line"/>
			<point x="614" y="817"/>
			<point x="588" y="824"/>
			<point x="542" y="824" type="curve" smooth="yes"/>
			<point x="442" y="824"/>
			<point x="386" y="752"/>
			<point x="386" y="670" type="curve" smooth="yes"/>
			<point x="386" y="639"/>
			<point x="400" y="602"/>
		</contour>
		<component base="C"/>
	</outline>
</glyph>
<glyph name="Dhook" format="1">
  <advance width="797"/>
  <outline>
    <contour>
      <point x="477" y="672" type="move" name="aboveUC"/>
    </contour>
    <contour>
      <point x="471" y="-22" type="move" name="belowLC"/>
    </contour>
    <contour>
      <point x="461" y="650" type="line"/>
      <point x="227" y="650" type="line" smooth="yes"/>
      <point x="104" y="650"/>
      <point x="25" y="583"/>
      <point x="25" y="480" type="curve" smooth="yes"/>
      <point x="25" y="413"/>
      <point x="53" y="366"/>
      <point x="110" y="341" type="curve"/>
      <point x="164" y="418" type="line"/>
      <point x="148" y="430"/>
      <point x="137" y="443"/>
      <point x="137" y="470" type="curve" smooth="yes"/>
      <point x="137" y="495"/>
      <point x="156" y="517"/>
      <point x="189" y="517" type="curve" smooth="yes"/>
      <point x="371" y="517" type="line"/>
    </contour>
    <contour>
      <point x="227" y="0" type="line"/>
      <point x="429" y="0" type="line" smooth="yes"/>
      <point x="617" y="0"/>
      <point x="753" y="98"/>
      <point x="753" y="328" type="curve" smooth="yes"/>
      <point x="753" y="558"/>
      <point x="617" y="650"/>
      <point x="419" y="650" type="curve" smooth="yes"/>
      <point x="227" y="650" type="line"/>
    </contour>
    <contour>
      <point x="399" y="138" type="line"/>
      <point x="399" y="512" type="line"/>
      <point x="409" y="512" type="line" smooth="yes"/>
      <point x="503" y="512"/>
      <point x="577" y="480"/>
      <point x="577" y="328" type="curve" smooth="yes"/>
      <point x="577" y="176"/>
      <point x="503" y="138"/>
      <point x="409" y="138" type="curve" smooth="yes"/>
    </contour>
  </outline>
</glyph>
<glyph name="Dhook.sc" format="1">
  <advance width="738"/>
  <outline>
    <contour>
      <point x="435" y="532" type="line"/>
      <point x="220" y="532" type="line" smooth="yes"/>
      <point x="107" y="532"/>
      <point x="34" y="469"/>
      <point x="34" y="373" type="curve" smooth="yes"/>
      <point x="34" y="310"/>
      <point x="60" y="266"/>
      <point x="112" y="243" type="curve"/>
      <point x="165" y="315" type="line"/>
      <point x="151" y="325"/>
      <point x="141" y="336"/>
      <point x="141" y="359" type="curve" smooth="yes"/>
      <point x="141" y="380"/>
      <point x="158" y="399"/>
      <point x="188" y="399" type="curve" smooth="yes"/>
      <point x="352" y="399" type="line"/>
    </contour>
    <contour>
      <point x="220" y="0" type="line"/>
      <point x="405" y="0" type="line" smooth="yes"/>
      <point x="562" y="0"/>
      <point x="694" y="69"/>
      <point x="694" y="269" type="curve" smooth="yes"/>
      <point x="694" y="468"/>
      <point x="562" y="532"/>
      <point x="394" y="532" type="curve" smooth="yes"/>
      <point x="220" y="532" type="line"/>
    </contour>
    <contour>
      <point x="392" y="133" type="line"/>
      <point x="392" y="399" type="line"/>
      <point x="405" y="399" type="line" smooth="yes"/>
      <point x="473" y="399"/>
      <point x="518" y="371"/>
      <point x="518" y="269" type="curve" smooth="yes"/>
      <point x="518" y="168"/>
      <point x="473" y="133"/>
      <point x="405" y="133" type="curve" smooth="yes"/>
    </contour>
    <contour>
      <point x="450.0" y="-22.0" type="move" name="belowLC"/>
    </contour>
    <contour>
      <point x="449.0" y="564.0" type="move" name="aboveUC"/>
    </contour>
  </outline>
</glyph>
<glyph name="Eopen" format="1">
	<advance width="568"/>
	<outline>
		<contour>
			<point x="296" y="-12" type="curve" smooth="yes"/>
			<point x="146" y="-12"/>
			<point x="32" y="57"/>
			<point x="32" y="194" type="curve" smooth="yes"/>
			<point x="32" y="268"/>
			<point x="78" y="324"/>
			<point x="139" y="342" type="curve"/>
			<point x="139" y="346" type="line"/>
			<point x="88" y="372"/>
			<point x="62" y="424"/>
			<point x="62" y="484" type="curve" smooth="yes"/>
			<point x="62" y="594"/>
			<point x="142" y="662"/>
			<point x="302" y="662" type="curve" smooth="yes"/>
			<point x="382" y="662"/>
			<point x="458" y="636"/>
			<point x="520" y="582" type="curve"/>
			<point x="434" y="468" type="line"/>
			<point x="390" y="498"/>
			<point x="356" y="514"/>
			<point x="308" y="514" type="curve" smooth="yes"/>
			<point x="262" y="514"/>
			<point x="230" y="499"/>
			<point x="230" y="455" type="curve" smooth="yes"/>
			<point x="230" y="419"/>
			<point x="252" y="396"/>
			<point x="316" y="396" type="curve" smooth="yes"/>
			<point x="388" y="396" type="line"/>
			<point x="388" y="270" type="line"/>
			<point x="296" y="270" type="line" smooth="yes"/>
			<point x="228" y="270"/>
			<point x="200" y="252"/>
			<point x="200" y="208" type="curve" smooth="yes"/>
			<point x="200" y="162"/>
			<point x="238" y="136"/>
			<point x="298" y="136" type="curve" smooth="yes"/>
			<point x="350" y="136"/>
			<point x="402" y="154"/>
			<point x="448" y="194" type="curve"/>
			<point x="538" y="76" type="line"/>
			<point x="468" y="12"/>
			<point x="378" y="-12"/>
		</contour>
		<contour>
			<point name="baseLC" x="292" y="0" type="move"/>
		</contour>
		<contour>
			<point name="belowLC" x="292" y="-22" type="move"/>
		</contour>
		<contour>
			<point name="aboveUC" x="288" y="672" type="move"/>
		</contour>
	</outline>
</glyph>
<glyph name="Eopen.sups" format="1">
  <advance width="377"/>
  <outline>
    <contour>
      <point x="201" y="360" type="curve" smooth="yes"/>
      <point x="256" y="360"/>
      <point x="318" y="376"/>
      <point x="366" y="418" type="curve"/>
      <point x="302" y="499" type="line"/>
      <point x="271" y="473"/>
      <point x="236" y="462"/>
      <point x="202" y="462" type="curve" smooth="yes"/>
      <point x="162" y="462"/>
      <point x="138" y="478"/>
      <point x="138" y="507" type="curve" smooth="yes"/>
      <point x="138" y="534"/>
      <point x="156" y="546"/>
      <point x="200" y="546" type="curve" smooth="yes"/>
      <point x="263" y="546" type="line"/>
      <point x="263" y="632" type="line"/>
      <point x="213" y="632" type="line" smooth="yes"/>
      <point x="172" y="632"/>
      <point x="158" y="647"/>
      <point x="158" y="669" type="curve" smooth="yes"/>
      <point x="158" y="697"/>
      <point x="179" y="706"/>
      <point x="209" y="706" type="curve" smooth="yes"/>
      <point x="241" y="706"/>
      <point x="263" y="696"/>
      <point x="293" y="676" type="curve"/>
      <point x="354" y="755" type="line"/>
      <point x="311" y="791"/>
      <point x="259" y="808"/>
      <point x="205" y="808" type="curve" smooth="yes"/>
      <point x="95" y="808"/>
      <point x="40" y="762"/>
      <point x="40" y="689" type="curve" smooth="yes"/>
      <point x="40" y="650"/>
      <point x="58" y="615"/>
      <point x="92" y="598" type="curve"/>
      <point x="92" y="595" type="line"/>
      <point x="51" y="583"/>
      <point x="20" y="546"/>
      <point x="20" y="497" type="curve" smooth="yes"/>
      <point x="20" y="405"/>
      <point x="98" y="360"/>
    </contour>
  </outline>
</glyph>
<glyph name="Eturned" format="1">
  <advance width="556"/>
  <outline>
    <contour>
      <point x="378" y="0" type="move" name="ogonekUC"/>
    </contour>
    <contour>
      <point x="276" y="-22" type="move" name="belowLC"/>
    </contour>
    <contour>
      <point x="272" y="672" type="move" name="aboveUC"/>
    </contour>
    <contour>
      <point x="484" y="0" type="line"/>
      <point x="484" y="650" type="line"/>
      <point x="64" y="650" type="line"/>
      <point x="64" y="506" type="line"/>
      <point x="312" y="506" type="line"/>
      <point x="312" y="404" type="line"/>
      <point x="100" y="404" type="line"/>
      <point x="100" y="260" type="line"/>
      <point x="312" y="260" type="line"/>
      <point x="312" y="144" type="line"/>
      <point x="54" y="144" type="line"/>
      <point x="54" y="0" type="line"/>
    </contour>
  </outline>
</glyph>
<glyph name="Eturned.sc" format="1">
  <advance width="508"/>
  <outline>
    <contour>
      <point x="436" y="0" type="line"/>
      <point x="436" y="532" type="line"/>
      <point x="64" y="532" type="line"/>
      <point x="64" y="400" type="line"/>
      <point x="264" y="400" type="line"/>
      <point x="264" y="330" type="line"/>
      <point x="92" y="330" type="line"/>
      <point x="92" y="206" type="line"/>
      <point x="264" y="206" type="line"/>
      <point x="264" y="132" type="line"/>
      <point x="54" y="132" type="line"/>
      <point x="54" y="0" type="line"/>
    </contour>
  </outline>
</glyph>
<glyph name="Ezh" format="1">
	<advance width="578"/>
	<outline>
		<contour>
			<point x="274" y="-12" type="curve" smooth="yes"/>
			<point x="403" y="-12"/>
			<point x="532" y="67"/>
			<point x="532" y="211" type="curve" smooth="yes"/>
			<point x="532" y="307"/>
			<point x="484" y="388"/>
			<point x="324" y="396" type="curve"/>
			<point x="512" y="569" type="line"/>
			<point x="512" y="651" type="line"/>
			<point x="66" y="651" type="line"/>
			<point x="66" y="527" type="line"/>
			<point x="296" y="527" type="line"/>
			<point x="118" y="349" type="line"/>
			<point x="172" y="269" type="line"/>
			<point x="194" y="277"/>
			<point x="202" y="279"/>
			<point x="228" y="279" type="curve" smooth="yes"/>
			<point x="310" y="279"/>
			<point x="360" y="252"/>
			<point x="360" y="204" type="curve" smooth="yes"/>
			<point x="360" y="148"/>
			<point x="324" y="117"/>
			<point x="252" y="117" type="curve" smooth="yes"/>
			<point x="210" y="117"/>
			<point x="144" y="138"/>
			<point x="112" y="165" type="curve"/>
			<point x="36" y="66" type="line"/>
			<point x="83" y="23"/>
			<point x="179" y="-12"/>
		</contour>
		<contour>
			<point name="belowLC" x="282" y="-22" type="move"/>
		</contour>
		<contour>
			<point name="aboveUC" x="278" y="682" type="move"/>
		</contour>
	</outline>
</glyph>
<glyph name="Fhook.alt" format="1">
  <advance width="536"/>
  <outline>
    <contour>
      <point x="72" y="650" type="line"/>
      <point x="72" y="0" type="line" smooth="yes"/>
      <point x="72" y="-28"/>
      <point x="58" y="-54"/>
      <point x="22" y="-54" type="curve" smooth="yes"/>
      <point x="10" y="-54"/>
      <point x="0" y="-52"/>
      <point x="-14" y="-48" type="curve"/>
      <point x="-44" y="-174" type="line"/>
      <point x="-22" y="-182"/>
      <point x="4" y="-188"/>
      <point x="50" y="-188" type="curve" smooth="yes"/>
      <point x="192" y="-188"/>
      <point x="244" y="-86"/>
      <point x="244" y="26" type="curve" smooth="yes"/>
      <point x="244" y="238" type="line"/>
      <point x="460" y="238" type="line"/>
      <point x="460" y="382" type="line"/>
      <point x="244" y="382" type="line"/>
      <point x="244" y="506" type="line"/>
      <point x="496" y="506" type="line"/>
      <point x="496" y="650" type="line"/>
    </contour>
  </outline>
</glyph>
<glyph name="Fhook" format="1">
  <advance width="594"/>
  <outline>
    <contour>
      <point x="302" y="330" type="line" smooth="yes"/>
      <point x="302" y="105"/>
      <point x="241" y="-12"/>
      <point x="86" y="-12" type="curve" smooth="yes"/>
      <point x="54" y="-12"/>
      <point x="12" y="-6"/>
      <point x="-8" y="8" type="curve"/>
      <point x="28" y="156" type="line"/>
      <point x="38" y="152"/>
      <point x="50" y="148"/>
      <point x="66" y="148" type="curve" smooth="yes"/>
      <point x="101" y="148"/>
      <point x="130" y="176"/>
      <point x="130" y="330" type="curve" smooth="yes"/>
      <point x="130" y="650" type="line"/>
      <point x="554" y="650" type="line"/>
      <point x="554" y="506" type="line"/>
      <point x="302" y="506" type="line"/>
    </contour>
    <contour>
      <point x="58" y="382" type="line"/>
      <point x="518" y="382" type="line"/>
      <point x="518" y="238" type="line"/>
      <point x="58" y="238" type="line"/>
    </contour>
  </outline>
</glyph>
<glyph name="Gammalatin" format="1">
  <advance width="572"/>
  <outline>
    <contour>
      <point x="282" y="-198" type="move" name="belowLC"/>
    </contour>
    <contour>
      <point x="286" y="672" type="move" name="aboveUC"/>
    </contour>
    <contour>
      <point x="182" y="221" type="line"/>
      <point x="390" y="221" type="line"/>
      <point x="582" y="650" type="line"/>
      <point x="406" y="650" type="line"/>
      <point x="340" y="456" type="line" smooth="yes"/>
      <point x="324" y="409"/>
      <point x="310" y="372"/>
      <point x="292" y="326" type="curve"/>
      <point x="288" y="326" type="line"/>
      <point x="270" y="372"/>
      <point x="257" y="408"/>
      <point x="240" y="456" type="curve" smooth="yes"/>
      <point x="172" y="650" type="line"/>
      <point x="-10" y="650" type="line"/>
    </contour>
    <contour>
      <point x="286" y="-188" type="curve" smooth="yes"/>
      <point x="393" y="-188"/>
      <point x="464" y="-110"/>
      <point x="464" y="9" type="curve" smooth="yes"/>
      <point x="464" y="90"/>
      <point x="431" y="142"/>
      <point x="372" y="263" type="curve"/>
      <point x="200" y="263" type="line"/>
      <point x="141" y="142"/>
      <point x="108" y="90"/>
      <point x="108" y="9" type="curve" smooth="yes"/>
      <point x="108" y="-110"/>
      <point x="179" y="-188"/>
    </contour>
    <contour>
      <point x="286" y="-54" type="curve" smooth="yes"/>
      <point x="267" y="-54"/>
      <point x="252" y="-36"/>
      <point x="252" y="-6" type="curve" smooth="yes"/>
      <point x="252" y="26"/>
      <point x="261" y="57"/>
      <point x="282" y="110" type="curve"/>
      <point x="287" y="110" type="line"/>
      <point x="311" y="57"/>
      <point x="320" y="26"/>
      <point x="320" y="-6" type="curve" smooth="yes"/>
      <point x="320" y="-36"/>
      <point x="305" y="-54"/>
    </contour>
  </outline>
</glyph>
<glyph name="Ghe.sc" format="1">
	<advance width="482"/>
	<outline>
		<component base="Gamma.sc"/>
		<contour>
			<point name="aboveUC" x="276" y="554" type="move"/>
		</contour>
	</outline>
</glyph>
<glyph name="Glottalstoplatin" format="1">
	<advance width="500"/>
	<outline>
		<contour>
			<point x="142" y="0" type="line"/>
			<point x="314" y="0" type="line"/>
			<point x="314" y="206" type="line"/>
			<point x="420" y="272"/>
			<point x="484" y="344"/>
			<point x="484" y="452" type="curve" smooth="yes"/>
			<point x="484" y="593"/>
			<point x="367" y="662"/>
			<point x="232" y="662" type="curve" smooth="yes"/>
			<point x="124" y="662"/>
			<point x="47" y="619"/>
			<point x="-8" y="562" type="curve"/>
			<point x="76" y="454" type="line"/>
			<point x="113" y="494"/>
			<point x="160" y="524"/>
			<point x="212" y="524" type="curve" smooth="yes"/>
			<point x="272" y="524"/>
			<point x="312" y="497"/>
			<point x="312" y="444" type="curve" smooth="yes"/>
			<point x="312" y="386"/>
			<point x="276" y="338"/>
			<point x="142" y="268" type="curve"/>
		</contour>
	</outline>
</glyph>
<glyph name="Heng" format="1">
  <advance width="682"/>
  <outline>
    <contour>
      <point x="610" y="650" type="line"/>
      <point x="438" y="650" type="line"/>
      <point x="438" y="408" type="line"/>
      <point x="244" y="408" type="line"/>
      <point x="244" y="650" type="line"/>
      <point x="72" y="650" type="line"/>
      <point x="72" y="0" type="line"/>
      <point x="244" y="0" type="line"/>
      <point x="244" y="258" type="line"/>
      <point x="438" y="258" type="line"/>
      <point x="438" y="0" type="line" smooth="yes"/>
      <point x="438" y="-28"/>
      <point x="424" y="-54"/>
      <point x="388" y="-54" type="curve" smooth="yes"/>
      <point x="376" y="-54"/>
      <point x="366" y="-52"/>
      <point x="352" y="-48" type="curve"/>
      <point x="322" y="-174" type="line"/>
      <point x="344" y="-182"/>
      <point x="370" y="-188"/>
      <point x="416" y="-188" type="curve" smooth="yes"/>
      <point x="558" y="-188"/>
      <point x="610" y="-86"/>
      <point x="610" y="26" type="curve" smooth="yes"/>
    </contour>
    <contour>
      <point x="340.0" y="672.0" type="move" name="aboveUC"/>
    </contour>
    <contour>
      <point x="340.0" y="-22.0" type="move" name="belowLC"/>
    </contour>
  </outline>
</glyph>
<glyph name="Hhook" format="1">
	<advance width="837"/>
	<outline>
		<contour>
			<point x="399" y="650" type="line"/>
			<point x="227" y="650" type="line" smooth="yes"/>
			<point x="104" y="650"/>
			<point x="25" y="583"/>
			<point x="25" y="480" type="curve" smooth="yes"/>
			<point x="25" y="413"/>
			<point x="53" y="366"/>
			<point x="110" y="341" type="curve"/>
			<point x="164" y="418" type="line"/>
			<point x="148" y="430"/>
			<point x="137" y="443"/>
			<point x="137" y="470" type="curve" smooth="yes"/>
			<point x="137" y="495"/>
			<point x="156" y="517"/>
			<point x="189" y="517" type="curve" smooth="yes"/>
			<point x="371" y="517" type="line"/>
		</contour>
		<component base="H" xOffset="155"/>
		<contour>
			<point name="aboveUC" x="495" y="672" type="move"/>
		</contour>
		<contour>
			<point name="belowLC" x="495" y="-22" type="move"/>
		</contour>
	</outline>
</glyph>
<glyph name="Hhook.sc" format="1">
  <advance width="780"/>
  <outline>
    <contour>
      <point x="464" y="-22" type="move" name="belowLC"/>
    </contour>
    <contour>
      <point x="464" y="564" type="move" name="aboveUC"/>
    </contour>
    <contour>
      <point x="112" y="243" type="curve"/>
      <point x="162" y="315" type="line"/>
      <point x="147" y="326"/>
      <point x="137" y="339"/>
      <point x="137" y="364" type="curve" smooth="yes"/>
      <point x="137" y="387"/>
      <point x="155" y="408"/>
      <point x="185" y="408" type="curve" smooth="yes"/>
      <point x="352" y="408" type="line"/>
      <point x="392" y="532" type="line"/>
      <point x="220" y="532" type="line" smooth="yes"/>
      <point x="107" y="532"/>
      <point x="34" y="469"/>
      <point x="34" y="373" type="curve" smooth="yes"/>
      <point x="34" y="310"/>
      <point x="60" y="266"/>
    </contour>
    <component base="H.sc" xOffset="148"/>
  </outline>
</glyph>
<glyph name="I.a" format="1">
  <advance width="416"/>
  <outline>
    <contour>
      <point x="54" y="0" type="line"/>
      <point x="362" y="0" type="line"/>
      <point x="362" y="144" type="line"/>
      <point x="294" y="144" type="line"/>
      <point x="294" y="506" type="line"/>
      <point x="362" y="506" type="line"/>
      <point x="362" y="650" type="line"/>
      <point x="54" y="650" type="line"/>
      <point x="54" y="506" type="line"/>
      <point x="122" y="506" type="line"/>
      <point x="122" y="144" type="line"/>
      <point x="54" y="144" type="line"/>
    </contour>
    <contour>
      <point x="208" y="670" type="move" name="aboveUC"/>
    </contour>
    <contour>
      <point x="208" y="-20" type="move" name="belowLC"/>
    </contour>
    <contour>
      <point x="190" y="0" type="move" name="ogonekUC"/>
    </contour>
  </outline>
</glyph>
<glyph name="Ie.sc" format="1">
	<advance width="508"/>
	<outline>
		<component base="E.sc"/>
		<contour>
			<point name="aboveUC" x="271" y="564" type="move"/>
		</contour>
		<contour>
			<point name="belowLC" x="272" y="-20" type="move"/>
		</contour>
	</outline>
</glyph>
<glyph name="Iota" format="1">
  <advance width="316"/>
  <outline>
    <component base="I"/>
    <contour>
      <point x="158" y="670" type="move" name="aboveUC"/>
    </contour>
  </outline>
</glyph>
<glyph name="Iotalatin" format="1">
  <advance width="316"/>
  <outline>
    <contour>
      <point x="70" y="180" type="curve" smooth="yes"/>
      <point x="70" y="650" type="line"/>
      <point x="244" y="650" type="line"/>
      <point x="244" y="181" type="line" smooth="yes"/>
      <point x="244" y="145"/>
      <point x="260" y="136"/>
      <point x="271" y="136" type="curve" smooth="yes"/>
      <point x="277" y="136"/>
      <point x="282" y="136"/>
      <point x="288" y="137" type="curve"/>
      <point x="307" y="6" type="line"/>
      <point x="290" y="-2"/>
      <point x="263" y="-12"/>
      <point x="226" y="-12" type="curve" smooth="yes"/>
      <point x="142" y="-12"/>
      <point x="70" y="24"/>
    </contour>
  </outline>
</glyph>
<glyph name="Istroke" format="1">
  <advance width="372"/>
  <outline>
    <contour>
      <point x="24" y="274" type="line"/>
      <point x="348" y="274" type="line"/>
      <point x="348" y="354" type="line"/>
      <point x="101" y="354" type="line"/>
      <point x="24" y="348" type="line"/>
    </contour>
    <component base="I" xOffset="28"/>
  </outline>
</glyph>
<glyph name="Iukran" format="1">
  <advance width="316"/>
  <outline>
    <component base="I"/>
    <contour>
      <point x="158" y="670" type="move" name="aboveUC"/>
    </contour>
  </outline>
</glyph>
<glyph name="Jcrossedtail" format="1">
  <advance width="519"/>
  <outline>
    <contour>
      <point x="431" y="-12" type="curve"/>
      <point x="552" y="63" type="line"/>
      <point x="482" y="222"/>
      <point x="341" y="333"/>
      <point x="220" y="333" type="curve" smooth="yes"/>
      <point x="108" y="333"/>
      <point x="40" y="268"/>
      <point x="40" y="169" type="curve" smooth="yes"/>
      <point x="40" y="66"/>
      <point x="110" y="-12"/>
      <point x="225" y="-12" type="curve" smooth="yes"/>
      <point x="376" y="-12"/>
      <point x="451" y="90"/>
      <point x="451" y="202" type="curve" smooth="yes"/>
      <point x="451" y="650" type="line"/>
      <point x="279" y="650" type="line"/>
      <point x="279" y="194" type="line" smooth="yes"/>
      <point x="279" y="154"/>
      <point x="265" y="136"/>
      <point x="241" y="136" type="curve" smooth="yes"/>
      <point x="217" y="136"/>
      <point x="207" y="154"/>
      <point x="207" y="172" type="curve" smooth="yes"/>
      <point x="207" y="190"/>
      <point x="223" y="202"/>
      <point x="241" y="202" type="curve" smooth="yes"/>
      <point x="291" y="202"/>
      <point x="386" y="103"/>
    </contour>
    <contour>
      <point x="363.0" y="672.0" type="move" name="aboveUC"/>
    </contour>
    <contour>
      <point x="275.0" y="-22.0" type="move" name="belowLC"/>
    </contour>
  </outline>
</glyph>
<glyph name="Khook" format="1">
	<advance width="628"/>
	<outline>
		<contour>
			<point x="482.896" y="490.827" type="line" smooth="yes"/>
			<point x="492.724" y="504.27"/>
			<point x="504.19" y="510.142"/>
			<point x="516.088" y="510.142" type="curve" smooth="yes"/>
			<point x="535.319" y="510.142"/>
			<point x="551.858" y="493.271"/>
			<point x="561.262" y="477.136" type="curve"/>
			<point x="660.95" y="559.829" type="line"/>
			<point x="635.924" y="595.021"/>
			<point x="572.991" y="662"/>
			<point x="498" y="662" type="curve" smooth="yes"/>
			<point x="450.426" y="662"/>
			<point x="409.167" y="646.054"/>
			<point x="357" y="569" type="curve" smooth="yes"/>
			<point x="248" y="408" type="line"/>
			<point x="244" y="408" type="line"/>
			<point x="244" y="650" type="line"/>
			<point x="72" y="650" type="line"/>
			<point x="72" y="0" type="line"/>
			<point x="244" y="0" type="line"/>
			<point x="244" y="162" type="line"/>
			<point x="306" y="250" type="line"/>
			<point x="450" y="0" type="line"/>
			<point x="638" y="0" type="line"/>
			<point x="406" y="386" type="line"/>
		</contour>
	</outline>
</glyph>
<glyph name="Kturned" format="1">
  <advance width="628"/>
  <outline>
    <component base="K" xScale="-1" xOffset="628"/>
    <contour>
      <point x="240.0" y="-22.0" type="move" name="aboveUC"/>
    </contour>
    <contour>
      <point x="252.0" y="672.0" type="move" name="belowLC"/>
    </contour>
  </outline>
</glyph>
<glyph name="Lbelt" format="1">
  <advance width="608"/>
  <outline>
    <contour>
      <point x="240" y="672" type="move" name="aboveUC"/>
    </contour>
    <contour>
      <point x="369" y="-22" type="move" name="belowLC"/>
    </contour>
    <contour>
      <point x="143" y="262" type="curve" smooth="yes"/>
      <point x="388" y="262" type="line"/>
      <point x="388" y="342" type="line"/>
      <point x="127" y="342" type="line" smooth="yes"/>
      <point x="92" y="342"/>
      <point x="76" y="356"/>
      <point x="76" y="373" type="curve" smooth="yes"/>
      <point x="76" y="389"/>
      <point x="85" y="400"/>
      <point x="104" y="400" type="curve" smooth="yes"/>
      <point x="141" y="400"/>
      <point x="150" y="360"/>
      <point x="150" y="342" type="curve"/>
      <point x="209" y="322" type="line"/>
      <point x="209" y="361"/>
      <point x="197" y="478"/>
      <point x="98" y="478" type="curve" smooth="yes"/>
      <point x="34" y="478"/>
      <point x="-12" y="433"/>
      <point x="-12" y="372" type="curve" smooth="yes"/>
      <point x="-12" y="311"/>
      <point x="34" y="262"/>
    </contour>
    <contour>
      <point x="150" y="0" type="line"/>
      <point x="568" y="0" type="line"/>
      <point x="568" y="144" type="line"/>
      <point x="322" y="144" type="line"/>
      <point x="322" y="650" type="line"/>
      <point x="150" y="650" type="line"/>
    </contour>
  </outline>
</glyph>
<glyph name="Lmiddletilde" format="1">
	<advance width="530"/>
	<outline>
		<component base="L"/>
		<component base="tildeoverlaycmb" xOffset="156" yOffset="100"/>
		<contour>
			<point name="aboveUC" x="162" y="670" type="move"/>
		</contour>
		<contour>
			<point name="belowLC" x="291" y="-20" type="move"/>
		</contour>
	</outline>
</glyph>
<glyph name="Ltilde" format="1">
  <advance width="616"/>
  <outline>
    <contour>
      <point x="248" y="672" type="move" name="aboveUC"/>
    </contour>
    <contour>
      <point x="377" y="-22" type="move" name="belowLC"/>
    </contour>
    <contour>
      <point x="334" y="254" type="curve" smooth="yes"/>
      <point x="394" y="254"/>
      <point x="456" y="282"/>
      <point x="518" y="362" type="curve"/>
      <point x="430" y="430" type="line"/>
      <point x="407" y="396"/>
      <point x="381" y="374"/>
      <point x="350" y="374" type="curve" smooth="yes"/>
      <point x="288" y="374"/>
      <point x="251" y="446"/>
      <point x="154" y="446" type="curve" smooth="yes"/>
      <point x="94" y="446"/>
      <point x="32" y="418"/>
      <point x="-30" y="338" type="curve"/>
      <point x="58" y="270" type="line"/>
      <point x="81" y="304"/>
      <point x="108" y="326"/>
      <point x="138" y="326" type="curve" smooth="yes"/>
      <point x="200" y="326"/>
      <point x="237" y="254"/>
    </contour>
    <contour>
      <point x="158" y="0" type="line"/>
      <point x="576" y="0" type="line"/>
      <point x="576" y="144" type="line"/>
      <point x="330" y="144" type="line"/>
      <point x="330" y="650" type="line"/>
      <point x="158" y="650" type="line"/>
    </contour>
  </outline>
</glyph>
<glyph name="Nhookleft.alt" format="1">
  <advance width="672"/>
  <outline>
    <contour>
      <point x="72" y="650" type="line"/>
      <point x="248" y="650" type="line"/>
      <point x="392" y="360" type="line"/>
      <point x="454" y="214" type="line"/>
      <point x="458" y="214" type="line"/>
      <point x="450" y="284"/>
      <point x="436" y="382"/>
      <point x="436" y="462" type="curve" smooth="yes"/>
      <point x="436" y="650" type="line"/>
      <point x="600" y="650" type="line"/>
      <point x="600" y="0" type="line"/>
      <point x="424" y="0" type="line"/>
      <point x="280" y="291" type="line"/>
      <point x="218" y="436" type="line"/>
      <point x="214" y="436" type="line"/>
      <point x="222" y="362"/>
      <point x="236" y="268"/>
      <point x="236" y="188" type="curve" smooth="yes"/>
      <point x="236" y="26" type="line" smooth="yes"/>
      <point x="236" y="-85.9766"/>
      <point x="192" y="-188"/>
      <point x="50" y="-188" type="curve" smooth="yes"/>
      <point x="4" y="-188"/>
      <point x="-22" y="-182"/>
      <point x="-44" y="-174" type="curve"/>
      <point x="-14" y="-48" type="line"/>
      <point x="0" y="-52"/>
      <point x="10" y="-54"/>
      <point x="22" y="-54" type="curve" smooth="yes"/>
      <point x="58" y="-54"/>
      <point x="72" y="-28"/>
      <point x="72" y="0" type="curve" smooth="yes"/>
    </contour>
    <contour>
      <point x="336.0" y="672.0" type="move" name="aboveUC"/>
    </contour>
  </outline>
</glyph>
<glyph name="Nhookleft" format="1">
  <advance width="736"/>
  <outline>
    <contour>
      <point x="436" y="672" type="move" name="aboveUC"/>
    </contour>
    <contour>
      <point x="130" y="650" type="line"/>
      <point x="130" y="330" type="line" smooth="yes"/>
      <point x="130" y="176"/>
      <point x="101" y="148"/>
      <point x="66" y="148" type="curve" smooth="yes"/>
      <point x="50" y="148"/>
      <point x="38" y="152"/>
      <point x="28" y="156" type="curve"/>
      <point x="-8" y="8" type="line"/>
      <point x="12" y="-6"/>
      <point x="54" y="-12"/>
      <point x="86" y="-12" type="curve" smooth="yes"/>
      <point x="241" y="-12"/>
      <point x="302" y="105"/>
      <point x="302" y="330" type="curve" smooth="yes"/>
      <point x="302" y="438" type="line"/>
      <point x="332" y="491"/>
      <point x="380" y="514"/>
      <point x="416" y="514" type="curve" smooth="yes"/>
      <point x="488" y="514"/>
      <point x="516.396" y="450.736"/>
      <point x="516" y="320" type="curve" smooth="yes"/>
      <point x="515" y="0" type="line"/>
      <point x="692" y="0" type="line"/>
      <point x="692" y="298.42" type="line" smooth="yes"/>
      <point x="692" y="556.15"/>
      <point x="612" y="662"/>
      <point x="469" y="662" type="curve" smooth="yes"/>
      <point x="404" y="662"/>
      <point x="346" y="638"/>
      <point x="296" y="584" type="curve"/>
      <point x="296" y="650" type="line"/>
    </contour>
  </outline>
</glyph>
<glyph name="Nlongleg" format="1">
  <advance width="678"/>
  <outline>
    <contour>
      <point x="378" y="672" type="move" name="aboveUC"/>
    </contour>
    <contour>
      <point x="634" y="-188" type="line"/>
      <point x="634" y="330" type="line" smooth="yes"/>
      <point x="634" y="572"/>
      <point x="538" y="662"/>
      <point x="411" y="662" type="curve" smooth="yes"/>
      <point x="346" y="662"/>
      <point x="288" y="638"/>
      <point x="238" y="584" type="curve"/>
      <point x="238" y="650" type="line"/>
      <point x="72" y="650" type="line"/>
      <point x="72" y="0" type="line"/>
      <point x="244" y="0" type="line"/>
      <point x="244" y="438" type="line"/>
      <point x="274" y="491"/>
      <point x="322" y="514"/>
      <point x="358" y="514" type="curve" smooth="yes"/>
      <point x="422" y="514"/>
      <point x="458" y="461"/>
      <point x="458" y="330" type="curve" smooth="yes"/>
      <point x="458" y="-188" type="line"/>
    </contour>
  </outline>
</glyph>
<glyph name="Ohorn.sc" format="1">
  <advance width="626"/>
  <outline>
    <component base="O.sc"/>
    <component base="horncmb" xOffset="442" yOffset="32"/>
    <contour>
      <point x="314" y="564" type="move" name="aboveUC"/>
    </contour>
    <contour>
      <point x="315" y="-20" type="move" name="belowLC"/>
    </contour>
  </outline>
</glyph>
<glyph name="Omegalatin" format="1">
  <advance width="850"/>
  <outline>
    <contour>
      <point x="275" y="-12" type="curve" smooth="yes"/>
      <point x="338" y="-12"/>
      <point x="392" y="19"/>
      <point x="421" y="112" type="curve"/>
      <point x="425" y="112" type="line"/>
      <point x="454" y="19"/>
      <point x="518" y="-12"/>
      <point x="581" y="-12" type="curve" smooth="yes"/>
      <point x="718" y="-12"/>
      <point x="790" y="123"/>
      <point x="790" y="347" type="curve" smooth="yes"/>
      <point x="790" y="473"/>
      <point x="757" y="574"/>
      <point x="713" y="664" type="curve"/>
      <point x="555.49" y="592" type="line"/>
      <point x="606" y="506"/>
      <point x="614" y="442"/>
      <point x="614" y="331" type="curve" smooth="yes"/>
      <point x="614" y="208"/>
      <point x="589" y="136"/>
      <point x="553" y="136" type="curve" smooth="yes"/>
      <point x="508" y="136"/>
      <point x="497" y="170"/>
      <point x="497" y="261" type="curve" smooth="yes"/>
      <point x="499" y="442" type="line"/>
      <point x="348" y="442" type="line"/>
      <point x="348" y="266" type="line" smooth="yes"/>
      <point x="348" y="184"/>
      <point x="333" y="137"/>
      <point x="290" y="137" type="curve" smooth="yes"/>
      <point x="248" y="137"/>
      <point x="235" y="206"/>
      <point x="235" y="298" type="curve" smooth="yes"/>
      <point x="235" y="414"/>
      <point x="244" y="496"/>
      <point x="290.51" y="587" type="curve"/>
      <point x="136" y="664" type="line"/>
      <point x="92" y="574"/>
      <point x="60" y="436"/>
      <point x="60" y="341" type="curve" smooth="yes"/>
      <point x="60" y="114"/>
      <point x="140" y="-12"/>
    </contour>
    <contour>
      <point x="425.0" y="672.0" type="move" name="aboveUC"/>
    </contour>
    <contour>
      <point x="425.0" y="-22.0" type="move" name="belowLC"/>
    </contour>
  </outline>
</glyph>
<glyph name="Omicron.sc" format="1">
	<advance width="626"/>
	<outline>
		<component base="O.sc"/>
		<contour>
			<point name="aboveLC" x="314" y="564" type="move"/>
		</contour>
		<contour>
			<point name="belowLC" x="315" y="-20" type="move"/>
		</contour>
	</outline>
</glyph>
<glyph name="Oopen" format="1">
  <advance width="586"/>
  <outline>
    <contour>
      <point x="238" y="-12" type="curve" smooth="yes"/>
      <point x="392" y="-12"/>
      <point x="542" y="86"/>
      <point x="542" y="320" type="curve" smooth="yes"/>
      <point x="542" y="554"/>
      <point x="398" y="662"/>
      <point x="242" y="662" type="curve" smooth="yes"/>
      <point x="154" y="662"/>
      <point x="76" y="622"/>
      <point x="26" y="576" type="curve"/>
      <point x="116" y="466" type="line"/>
      <point x="153" y="496"/>
      <point x="186" y="514"/>
      <point x="232" y="514" type="curve" smooth="yes"/>
      <point x="306" y="514"/>
      <point x="366" y="462"/>
      <point x="366" y="326" type="curve" smooth="yes"/>
      <point x="366" y="186"/>
      <point x="306" y="136"/>
      <point x="236" y="136" type="curve" smooth="yes"/>
      <point x="182" y="136"/>
      <point x="140" y="162"/>
      <point x="108" y="192" type="curve"/>
      <point x="18" y="84" type="line"/>
      <point x="78" y="20"/>
      <point x="154" y="-12"/>
    </contour>
    <contour>
      <point x="258.0" y="672.0" type="move" name="aboveUC"/>
    </contour>
    <contour>
      <point x="254.0" y="-22.0" type="move" name="belowLC"/>
    </contour>
    <contour>
      <point x="254.0" y="0.0" type="move" name="baseLC"/>
    </contour>
  </outline>
</glyph>
<glyph name="Oopen.sc" format="1">
	<advance width="526"/>
	<outline>
		<contour>
			<point x="209" y="-12" type="curve" smooth="yes"/>
			<point x="354" y="-12"/>
			<point x="482" y="74"/>
			<point x="482" y="261" type="curve" smooth="yes"/>
			<point x="482" y="443"/>
			<point x="346" y="544"/>
			<point x="199" y="544" type="curve" smooth="yes"/>
			<point x="128" y="544"/>
			<point x="64" y="512"/>
			<point x="22" y="472" type="curve"/>
			<point x="114" y="370" type="line"/>
			<point x="142" y="393"/>
			<point x="164" y="404"/>
			<point x="197" y="404" type="curve" smooth="yes"/>
			<point x="255" y="404"/>
			<point x="308" y="354"/>
			<point x="308" y="267" type="curve" smooth="yes"/>
			<point x="308" y="174"/>
			<point x="265" y="128"/>
			<point x="201" y="128" type="curve" smooth="yes"/>
			<point x="161" y="128"/>
			<point x="131" y="146"/>
			<point x="110" y="166" type="curve"/>
			<point x="18" y="66" type="line"/>
			<point x="67" y="13"/>
			<point x="137" y="-12"/>
		</contour>
		<contour>
			<point name="baseLC" x="224" y="0" type="move"/>
		</contour>
		<contour>
			<point name="belowLC" x="224" y="-22" type="move"/>
		</contour>
		<contour>
			<point name="aboveUC" x="224" y="564" type="move"/>
		</contour>
	</outline>
</glyph>
<glyph name="Oopen.sups" format="1">
  <advance width="395"/>
  <outline>
    <contour>
      <point x="159" y="360" type="curve" smooth="yes"/>
      <point x="271" y="360"/>
      <point x="366" y="433"/>
      <point x="366" y="579" type="curve" smooth="yes"/>
      <point x="366" y="723"/>
      <point x="264" y="808"/>
      <point x="151" y="808" type="curve" smooth="yes"/>
      <point x="94" y="808"/>
      <point x="46" y="782"/>
      <point x="17" y="749" type="curve"/>
      <point x="82" y="676" type="line"/>
      <point x="104" y="694"/>
      <point x="122" y="704"/>
      <point x="149" y="704" type="curve" smooth="yes"/>
      <point x="200" y="704"/>
      <point x="243" y="658"/>
      <point x="243" y="583" type="curve" smooth="yes"/>
      <point x="243" y="506"/>
      <point x="207" y="462"/>
      <point x="152" y="462" type="curve" smooth="yes"/>
      <point x="119" y="462"/>
      <point x="95" y="476"/>
      <point x="76" y="497" type="curve"/>
      <point x="11" y="426" type="line"/>
      <point x="49" y="381"/>
      <point x="100" y="360"/>
    </contour>
  </outline>
</glyph>
<glyph name="Phook" format="1">
  <advance width="763"/>
  <outline>
    <contour>
      <point x="465" y="650" type="line"/>
      <point x="227" y="650" type="line" smooth="yes"/>
      <point x="104" y="650"/>
      <point x="25" y="583"/>
      <point x="25" y="480" type="curve" smooth="yes"/>
      <point x="25" y="413"/>
      <point x="53" y="366"/>
      <point x="110" y="341" type="curve"/>
      <point x="164" y="418" type="line"/>
      <point x="148" y="430"/>
      <point x="137" y="443"/>
      <point x="137" y="470" type="curve" smooth="yes"/>
      <point x="137" y="495"/>
      <point x="156" y="517"/>
      <point x="189" y="517" type="curve" smooth="yes"/>
      <point x="371" y="517" type="line"/>
    </contour>
    <component base="P" xOffset="155"/>
    <contour>
      <point x="476" y="672" type="move" name="aboveUC"/>
    </contour>
    <contour>
      <point x="325" y="-22" type="move" name="belowLC"/>
    </contour>
  </outline>
</glyph>
<glyph name="Phook.sc" format="1">
  <advance width="712"/>
  <outline>
    <contour>
      <point x="435" y="532" type="line"/>
      <point x="220" y="532" type="line" smooth="yes"/>
      <point x="107" y="532"/>
      <point x="34" y="469"/>
      <point x="34" y="373" type="curve" smooth="yes"/>
      <point x="34" y="310"/>
      <point x="60" y="266"/>
      <point x="112" y="243" type="curve"/>
      <point x="165" y="315" type="line"/>
      <point x="151" y="325"/>
      <point x="141" y="336"/>
      <point x="141" y="359" type="curve" smooth="yes"/>
      <point x="141" y="380"/>
      <point x="158" y="399"/>
      <point x="188" y="399" type="curve" smooth="yes"/>
      <point x="352" y="399" type="line"/>
    </contour>
    <contour>
      <point x="220" y="0" type="line"/>
      <point x="392" y="0" type="line"/>
      <point x="392" y="156" type="line"/>
      <point x="449" y="156" type="line" smooth="yes"/>
      <point x="565" y="156"/>
      <point x="678" y="211"/>
      <point x="678" y="348" type="curve" smooth="yes"/>
      <point x="678" y="489"/>
      <point x="569" y="532"/>
      <point x="449" y="532" type="curve" smooth="yes"/>
      <point x="220" y="532" type="line"/>
    </contour>
    <contour>
      <point x="392" y="272" type="line"/>
      <point x="392" y="398" type="line"/>
      <point x="444" y="398" type="line" smooth="yes"/>
      <point x="492" y="398"/>
      <point x="516" y="378"/>
      <point x="516" y="338" type="curve" smooth="yes"/>
      <point x="516" y="300"/>
      <point x="490" y="272"/>
      <point x="444" y="272" type="curve" smooth="yes"/>
    </contour>
    <contour>
      <point x="318.0" y="-22.0" type="move" name="belowLC"/>
    </contour>
    <contour>
      <point x="454.0" y="564.0" type="move" name="aboveUC"/>
    </contour>
  </outline>
</glyph>
<glyph name="Rho" format="1">
  <advance width="608"/>
  <outline>
    <component base="P"/>
    <contour>
      <point x="321" y="670" type="move" name="aboveUC"/>
    </contour>
  </outline>
</glyph>
<glyph name="Rho.sc" format="1">
  <advance width="564"/>
  <outline>
    <component base="P.sc"/>
    <contour>
      <point x="306" y="564" type="move" name="aboveLC"/>
    </contour>
    <contour>
      <point x="170" y="-20" type="move" name="belowLC"/>
    </contour>
  </outline>
</glyph>
<glyph name="Rstroke" format="1">
	<advance width="658"/>
	<outline>
		<contour>
			<point x="24" y="274" type="line"/>
			<point x="386" y="274" type="line"/>
			<point x="386" y="354" type="line"/>
			<point x="100" y="354" type="line"/>
			<point x="24" y="348" type="line"/>
		</contour>
		<component base="R" xOffset="28"/>
	</outline>
</glyph>
<glyph name="Rtail.alt" format="1">
  <advance width="630"/>
  <outline>
    <contour>
      <point x="72" y="26" type="line"/>
      <point x="244" y="0" type="line"/>
      <point x="244" y="218" type="line"/>
      <point x="318" y="218" type="line" smooth="yes"/>
      <point x="458" y="218"/>
      <point x="578" y="283"/>
      <point x="578" y="440" type="curve" smooth="yes"/>
      <point x="578" y="602"/>
      <point x="458" y="650"/>
      <point x="318" y="650" type="curve" smooth="yes"/>
      <point x="72" y="650" type="line"/>
    </contour>
    <contour>
      <point x="244" y="354" type="line"/>
      <point x="244" y="514" type="line"/>
      <point x="306" y="514" type="line" smooth="yes"/>
      <point x="374" y="514"/>
      <point x="410" y="496"/>
      <point x="410" y="440" type="curve" smooth="yes"/>
      <point x="410" y="384"/>
      <point x="374" y="354"/>
      <point x="306" y="354" type="curve" smooth="yes"/>
    </contour>
    <contour>
      <point x="422" y="0" type="line"/>
      <point x="614" y="0" type="line"/>
      <point x="403" y="377" type="line"/>
      <point x="287" y="263" type="line"/>
    </contour>
    <contour>
      <point x="244" y="598" type="line"/>
      <point x="72" y="650" type="line"/>
      <point x="72" y="26" type="line" smooth="yes"/>
      <point x="72" y="-86"/>
      <point x="124" y="-188"/>
      <point x="266" y="-188" type="curve" smooth="yes"/>
      <point x="312" y="-188"/>
      <point x="338" y="-182"/>
      <point x="360" y="-174" type="curve"/>
      <point x="330" y="-48" type="line"/>
      <point x="316" y="-52"/>
      <point x="306" y="-54"/>
      <point x="294" y="-54" type="curve" smooth="yes"/>
      <point x="258" y="-54"/>
      <point x="244" y="-28"/>
      <point x="244" y="0" type="curve" smooth="yes"/>
    </contour>
  </outline>
</glyph>
<glyph name="Rtail" format="1">
  <advance width="473"/>
  <outline>
    <contour>
      <point x="244" y="0" type="line" smooth="yes"/>
      <point x="244" y="-28"/>
      <point x="258" y="-54"/>
      <point x="294" y="-54" type="curve" smooth="yes"/>
      <point x="306" y="-54"/>
      <point x="316" y="-52"/>
      <point x="330" y="-48" type="curve"/>
      <point x="360" y="-174" type="line"/>
      <point x="338" y="-182"/>
      <point x="312" y="-188"/>
      <point x="266" y="-188" type="curve" smooth="yes"/>
      <point x="124" y="-188"/>
      <point x="72" y="-86"/>
      <point x="72" y="26" type="curve" smooth="yes"/>
      <point x="71.8799" y="649.8" type="line"/>
      <point x="205" y="650" type="line"/>
      <point x="220" y="547" type="line"/>
      <point x="224" y="547" type="line"/>
      <point x="269" y="627"/>
      <point x="337" y="663"/>
      <point x="397" y="663" type="curve" smooth="yes"/>
      <point x="435" y="663"/>
      <point x="456" y="658"/>
      <point x="473" y="651" type="curve"/>
      <point x="439" y="510.905" type="line"/>
      <point x="417" y="516.33"/>
      <point x="398" y="520.67"/>
      <point x="371" y="520.67" type="curve" smooth="yes"/>
      <point x="327" y="520.67"/>
      <point x="273" y="492.46"/>
      <point x="244" y="410" type="curve"/>
    </contour>
  </outline>
</glyph>
<glyph name="Saltillo" format="1">
	<advance width="360"/>
	<outline>
		<contour>
			<point x="124" y="244" type="line"/>
			<point x="236" y="244" type="line"/>
			<point x="260" y="502" type="line"/>
			<point x="266" y="650" type="line"/>
			<point x="94" y="650" type="line"/>
			<point x="100" y="502" type="line"/>
		</contour>
	</outline>
</glyph>
<glyph name="Tbar" format="1">
	<advance width="564"/>
	<outline>
		<contour>
			<point x="196" y="0" type="line"/>
			<point x="368" y="0" type="line"/>
			<point x="368" y="506" type="line"/>
			<point x="540" y="506" type="line"/>
			<point x="540" y="650" type="line"/>
			<point x="24" y="650" type="line"/>
			<point x="24" y="506" type="line"/>
			<point x="196" y="506" type="line"/>
		</contour>
		<contour>
			<point x="80" y="274" type="line"/>
			<point x="484" y="274" type="line"/>
			<point x="484" y="354" type="line"/>
			<point x="176" y="354" type="line"/>
			<point x="80" y="348" type="line"/>
		</contour>
		<contour>
			<point name="aboveUC" x="282" y="670" type="move"/>
		</contour>
		<contour>
			<point name="belowLC" x="282" y="-20" type="move"/>
		</contour>
	</outline>
</glyph>
<glyph name="Thook" format="1">
	<advance width="614"/>
	<outline>
		<contour>
			<point x="246" y="0" type="line"/>
			<point x="418" y="0" type="line"/>
			<point x="418" y="506" type="line"/>
			<point x="590" y="506" type="line"/>
			<point x="590" y="650" type="line"/>
			<point x="227" y="650" type="line" smooth="yes"/>
			<point x="104" y="650"/>
			<point x="25" y="583"/>
			<point x="25" y="480" type="curve" smooth="yes"/>
			<point x="25" y="413"/>
			<point x="53" y="366"/>
			<point x="110" y="341" type="curve"/>
			<point x="164" y="418" type="line"/>
			<point x="148" y="429"/>
			<point x="137" y="440"/>
			<point x="137" y="464" type="curve" smooth="yes"/>
			<point x="137" y="486"/>
			<point x="156" y="506"/>
			<point x="189" y="506" type="curve" smooth="yes"/>
			<point x="246" y="506" type="line"/>
		</contour>
	</outline>
</glyph>
<glyph name="Thook.sc" format="1">
  <advance width="571"/>
  <outline>
    <contour>
      <point x="435" y="532" type="line"/>
      <point x="220" y="532" type="line" smooth="yes"/>
      <point x="107" y="532"/>
      <point x="34" y="469"/>
      <point x="34" y="373" type="curve" smooth="yes"/>
      <point x="34" y="310"/>
      <point x="60" y="266"/>
      <point x="112" y="243" type="curve"/>
      <point x="170" y="315" type="line"/>
      <point x="155" y="324"/>
      <point x="145" y="335"/>
      <point x="145" y="356" type="curve" smooth="yes"/>
      <point x="145" y="375"/>
      <point x="163" y="392"/>
      <point x="194" y="392" type="curve" smooth="yes"/>
      <point x="368" y="392" type="line"/>
    </contour>
    <contour>
      <point x="235" y="0" type="line"/>
      <point x="407" y="0" type="line"/>
      <point x="407" y="392" type="line"/>
      <point x="547" y="392" type="line"/>
      <point x="547" y="532" type="line"/>
      <point x="220" y="532" type="line"/>
      <point x="194" y="392" type="line"/>
      <point x="235" y="392" type="line"/>
    </contour>
    <contour>
      <point x="321.0" y="0.0" type="move" name="baseLC"/>
    </contour>
    <contour>
      <point x="321.0" y="-22.0" type="move" name="belowLC"/>
    </contour>
    <contour>
      <point x="321.0" y="564.0" type="move" name="aboveUC"/>
    </contour>
  </outline>
</glyph>
<glyph name="Tturned" format="1">
  <advance width="564"/>
  <outline>
    <contour>
      <point x="282" y="672" type="move" name="aboveUC"/>
    </contour>
    <contour>
      <point x="282" y="-22" type="move" name="belowLC"/>
    </contour>
    <contour>
      <point x="282" y="0" type="move" name="baseLC"/>
    </contour>
    <contour>
      <point x="368" y="650" type="line"/>
      <point x="196" y="650" type="line"/>
      <point x="196" y="144" type="line"/>
      <point x="24" y="144" type="line"/>
      <point x="24" y="0" type="line"/>
      <point x="540" y="0" type="line"/>
      <point x="540" y="144" type="line"/>
      <point x="368" y="144" type="line"/>
    </contour>
  </outline>
</glyph>
<glyph name="Ubar" format="1">
  <advance width="720"/>
  <outline>
    <contour>
      <point x="22" y="316" type="line"/>
      <point x="698" y="316" type="line"/>
      <point x="698" y="396" type="line"/>
      <point x="98" y="396" type="line"/>
      <point x="22" y="390" type="line"/>
    </contour>
    <component base="U" xOffset="24"/>
  </outline>
</glyph>
<glyph name="Upsilonlatin" format="1">
  <advance width="724"/>
  <outline>
    <contour>
      <point x="44" y="650" type="line"/>
      <point x="44" y="512" type="line"/>
      <point x="146" y="512" type="line"/>
      <point x="146" y="508" type="line"/>
      <point x="108" y="468"/>
      <point x="60" y="388"/>
      <point x="60" y="290" type="curve" smooth="yes"/>
      <point x="60" y="110"/>
      <point x="182" y="-12"/>
      <point x="362" y="-12" type="curve" smooth="yes"/>
      <point x="542" y="-12"/>
      <point x="664" y="110"/>
      <point x="664" y="290" type="curve" smooth="yes"/>
      <point x="664" y="388"/>
      <point x="616" y="468"/>
      <point x="578" y="508" type="curve"/>
      <point x="578" y="512" type="line"/>
      <point x="680" y="512" type="line"/>
      <point x="680" y="650" type="line"/>
      <point x="400" y="650" type="line"/>
      <point x="400" y="526" type="line"/>
      <point x="464" y="462"/>
      <point x="488" y="396"/>
      <point x="488" y="308" type="curve" smooth="yes"/>
      <point x="488" y="206"/>
      <point x="440" y="136"/>
      <point x="362" y="136" type="curve" smooth="yes"/>
      <point x="284" y="136"/>
      <point x="236" y="206"/>
      <point x="236" y="308" type="curve" smooth="yes"/>
      <point x="236" y="396"/>
      <point x="260" y="462"/>
      <point x="324" y="526" type="curve"/>
      <point x="324" y="650" type="line"/>
    </contour>
  </outline>
</glyph>
<glyph name="Upsilonlatin.sc" format="1">
	<advance width="648"/>
	<outline>
		<contour>
			<point x="44" y="532" type="line"/>
			<point x="44" y="398" type="line"/>
			<point x="124" y="398" type="line"/>
			<point x="124" y="394" type="line"/>
			<point x="96" y="366"/>
			<point x="56" y="304"/>
			<point x="56" y="234" type="curve" smooth="yes"/>
			<point x="56" y="88"/>
			<point x="166" y="-12"/>
			<point x="324" y="-12" type="curve" smooth="yes"/>
			<point x="482" y="-12"/>
			<point x="592" y="88"/>
			<point x="592" y="234" type="curve" smooth="yes"/>
			<point x="592" y="304"/>
			<point x="552" y="366"/>
			<point x="524" y="394" type="curve"/>
			<point x="524" y="398" type="line"/>
			<point x="604" y="398" type="line"/>
			<point x="604" y="532" type="line"/>
			<point x="352" y="532" type="line"/>
			<point x="352" y="412" type="line"/>
			<point x="404" y="358"/>
			<point x="420" y="310"/>
			<point x="420" y="252" type="curve" smooth="yes"/>
			<point x="420" y="174"/>
			<point x="382" y="128"/>
			<point x="324" y="128" type="curve" smooth="yes"/>
			<point x="266" y="128"/>
			<point x="228" y="174"/>
			<point x="228" y="252" type="curve" smooth="yes"/>
			<point x="228" y="310"/>
			<point x="244" y="358"/>
			<point x="296" y="412" type="curve"/>
			<point x="296" y="532" type="line"/>
		</contour>
	</outline>
</glyph>
<glyph name="Vhook" format="1">
	<advance width="688"/>
	<outline>
		<contour>
			<point x="343" y="-12" type="curve" smooth="yes"/>
			<point x="543" y="-12"/>
			<point x="644" y="147"/>
			<point x="644" y="394" type="curve" smooth="yes"/>
			<point x="644" y="582"/>
			<point x="547" y="661"/>
			<point x="427" y="661" type="curve" smooth="yes"/>
			<point x="388" y="661"/>
			<point x="364" y="659"/>
			<point x="341" y="651" type="curve"/>
			<point x="366" y="510" type="line"/>
			<point x="373" y="512"/>
			<point x="382" y="514"/>
			<point x="394" y="514" type="curve" smooth="yes"/>
			<point x="448" y="514"/>
			<point x="468" y="468"/>
			<point x="468" y="361" type="curve" smooth="yes"/>
			<point x="468" y="216"/>
			<point x="427" y="136"/>
			<point x="353" y="136" type="curve" smooth="yes"/>
			<point x="278" y="136"/>
			<point x="237" y="181"/>
			<point x="237" y="279" type="curve" smooth="yes"/>
			<point x="237" y="650" type="line"/>
			<point x="72" y="650" type="line"/>
			<point x="72" y="289" type="line" smooth="yes"/>
			<point x="72" y="94"/>
			<point x="174" y="-12"/>
		</contour>
	</outline>
</glyph>
<glyph name="Vturned.sc" format="1">
  <advance width="508"/>
  <outline>
    <contour>
      <point x="358" y="532" type="line"/>
      <point x="152" y="532" type="line"/>
      <point x="-10" y="0" type="line"/>
      <point x="162" y="0" type="line"/>
      <point x="210" y="215" type="line" smooth="yes"/>
      <point x="222" y="270"/>
      <point x="233" y="325"/>
      <point x="248" y="382" type="curve"/>
      <point x="252" y="382" type="line"/>
      <point x="266" y="324"/>
      <point x="277" y="270"/>
      <point x="290" y="215" type="curve" smooth="yes"/>
      <point x="340" y="0" type="line"/>
      <point x="518" y="0" type="line"/>
    </contour>
  </outline>
</glyph>
<glyph name="Whook" format="1">
  <advance width="924"/>
  <outline>
    <contour>
      <point x="706" y="0" type="line"/>
      <point x="488" y="0" type="line"/>
      <point x="438" y="258" type="line"/>
      <point x="428" y="308"/>
      <point x="420" y="362"/>
      <point x="414" y="410" type="curve"/>
      <point x="410" y="410" type="line"/>
      <point x="403" y="362"/>
      <point x="396" y="308"/>
      <point x="386" y="258" type="curve"/>
      <point x="338" y="0" type="line"/>
      <point x="124" y="0" type="line"/>
      <point x="10" y="650" type="line"/>
      <point x="186" y="650" type="line"/>
      <point x="222" y="366" type="line"/>
      <point x="229" y="298"/>
      <point x="237" y="230"/>
      <point x="244" y="162" type="curve"/>
      <point x="248" y="162" type="line"/>
      <point x="260" y="230"/>
      <point x="272" y="299"/>
      <point x="284" y="366" type="curve"/>
      <point x="346" y="650" type="line"/>
      <point x="490" y="650" type="line"/>
      <point x="552" y="366" type="line"/>
      <point x="564" y="301"/>
      <point x="576" y="231"/>
      <point x="588" y="162" type="curve"/>
      <point x="592" y="162" type="line"/>
      <point x="599" y="231"/>
      <point x="607" y="300"/>
      <point x="614" y="366" type="curve"/>
      <point x="634" y="486" type="line" smooth="yes"/>
      <point x="658.162" y="630.973"/>
      <point x="728.333" y="662"/>
      <point x="796" y="662" type="curve" smooth="yes"/>
      <point x="870" y="662"/>
      <point x="933.923" y="595.021"/>
      <point x="958.95" y="559.829" type="curve"/>
      <point x="859.262" y="477.136" type="line"/>
      <point x="851.503" y="493.271"/>
      <point x="837.03" y="510.142"/>
      <point x="819.512" y="510.142" type="curve" smooth="yes"/>
      <point x="805.435" y="510.142"/>
      <point x="791.432" y="502.737"/>
      <point x="784" y="459" type="curve" smooth="yes"/>
    </contour>
  </outline>
</glyph>
<glyph name="Yhook" format="1">
  <advance width="613"/>
  <outline>
    <contour>
      <point x="358" y="224" type="line"/>
      <point x="358" y="0" type="line"/>
      <point x="186" y="0" type="line"/>
      <point x="186" y="224" type="line"/>
      <point x="-10" y="650" type="line"/>
      <point x="174" y="650" type="line"/>
      <point x="222" y="514" type="line"/>
      <point x="238" y="465"/>
      <point x="254" y="420"/>
      <point x="271" y="369" type="curve"/>
      <point x="275" y="369" type="line"/>
      <point x="326" y="514" type="line" smooth="yes"/>
      <point x="363" y="620"/>
      <point x="416.333" y="662"/>
      <point x="484" y="662" type="curve" smooth="yes"/>
      <point x="558" y="662"/>
      <point x="621.923" y="595.022"/>
      <point x="646.95" y="559.829" type="curve"/>
      <point x="547.262" y="477.136" type="line"/>
      <point x="539.503" y="493.271"/>
      <point x="525.03" y="510.142"/>
      <point x="507.512" y="510.142" type="curve" smooth="yes"/>
      <point x="493.435" y="510.142"/>
      <point x="483.413" y="497.875"/>
      <point x="476.144" y="482" type="curve" smooth="yes"/>
    </contour>
  </outline>
</glyph>
<glyph name="Zeta.sc" format="1">
	<advance width="483"/>
	<outline>
		<component base="Z.sc"/>
		<contour>
			<point name="aboveLC" x="258" y="564" type="move"/>
		</contour>
		<contour>
			<point name="belowLC" x="252" y="-20" type="move"/>
		</contour>
	</outline>
</glyph>
<glyph name="a.a" format="1">
  <advance width="580"/>
  <outline>
    <contour>
      <point x="240" y="-12" type="curve" smooth="yes"/>
      <point x="284" y="-12"/>
      <point x="332" y="12"/>
      <point x="366" y="46" type="curve"/>
      <point x="370" y="46" type="line"/>
      <point x="382" y="0" type="line"/>
      <point x="522" y="0" type="line"/>
      <point x="522" y="500" type="line"/>
      <point x="388" y="500" type="line"/>
      <point x="374" y="450" type="line"/>
      <point x="370" y="450" type="line"/>
      <point x="332" y="494"/>
      <point x="292" y="512"/>
      <point x="244" y="512" type="curve" smooth="yes"/>
      <point x="142" y="512"/>
      <point x="36" y="414"/>
      <point x="36" y="250" type="curve" smooth="yes"/>
      <point x="36" y="88"/>
      <point x="116" y="-12"/>
    </contour>
    <contour>
      <point x="286" y="128" type="curve" smooth="yes"/>
      <point x="240" y="128"/>
      <point x="212" y="162"/>
      <point x="212" y="252" type="curve" smooth="yes"/>
      <point x="212" y="340"/>
      <point x="246" y="372"/>
      <point x="282" y="372" type="curve" smooth="yes"/>
      <point x="304" y="372"/>
      <point x="330" y="366"/>
      <point x="350" y="348" type="curve"/>
      <point x="350" y="164" type="line"/>
      <point x="332" y="136"/>
      <point x="312" y="128"/>
    </contour>
    <contour>
      <point x="310" y="520" type="move" name="aboveLC"/>
    </contour>
    <contour>
      <point x="300" y="-20" type="move" name="belowLC"/>
    </contour>
    <contour>
      <point x="414" y="0" type="move" name="ogonekLC"/>
    </contour>
    <contour>
      <point x="290" y="0" type="move" name="baseLC"/>
    </contour>
  </outline>
</glyph>
<glyph name="alphaiotasub" format="1">
  <advance width="608"/>
  <outline>
    <component base="alpha"/>
    <component base="iotasubscriptcmb" xOffset="315"/>
    <contour>
      <point x="304" y="520" type="move" name="aboveLC"/>
    </contour>
  </outline>
</glyph>
<glyph name="alphalatin" format="1">
  <advance width="580"/>
  <outline>
    <contour>
      <point x="306" y="522" type="move" name="aboveLC"/>
    </contour>
    <contour>
      <point x="308" y="-22" type="move" name="belowLC"/>
    </contour>
    <contour>
      <point x="290" y="0" type="move" name="baseLC"/>
    </contour>
    <contour>
      <point x="286" y="128" type="curve" smooth="yes"/>
      <point x="240" y="128"/>
      <point x="212" y="162"/>
      <point x="212" y="252" type="curve" smooth="yes"/>
      <point x="212" y="340"/>
      <point x="246" y="372"/>
      <point x="282" y="372" type="curve" smooth="yes"/>
      <point x="304" y="372"/>
      <point x="330" y="366"/>
      <point x="350" y="348" type="curve"/>
      <point x="350" y="164" type="line"/>
      <point x="332" y="136"/>
      <point x="312" y="128"/>
    </contour>
    <contour>
      <point x="240" y="-12" type="curve" smooth="yes"/>
      <point x="286" y="-12"/>
      <point x="341" y="16"/>
      <point x="372" y="52" type="curve"/>
      <point x="376" y="52" type="line"/>
      <point x="376" y="51" type="line"/>
      <point x="394" y="11"/>
      <point x="432" y="-12"/>
      <point x="484" y="-12" type="curve" smooth="yes"/>
      <point x="516" y="-12"/>
      <point x="534" y="-8"/>
      <point x="550" y="0" type="curve"/>
      <point x="554" y="128" type="line"/>
      <point x="548" y="126"/>
      <point x="544" y="126"/>
      <point x="542" y="126" type="curve" smooth="yes"/>
      <point x="530" y="126"/>
      <point x="522" y="134"/>
      <point x="522" y="160" type="curve" smooth="yes"/>
      <point x="522" y="500" type="line"/>
      <point x="388" y="500" type="line"/>
      <point x="374" y="450" type="line"/>
      <point x="370" y="450" type="line"/>
      <point x="332" y="494"/>
      <point x="292" y="512"/>
      <point x="244" y="512" type="curve" smooth="yes"/>
      <point x="142" y="512"/>
      <point x="36" y="414"/>
      <point x="36" y="250" type="curve" smooth="yes"/>
      <point x="36" y="88"/>
      <point x="116" y="-12"/>
    </contour>
  </outline>
</glyph>
<glyph name="arrowdownleft" format="1">
  <advance width="616"/>
  <outline>
    <contour>
      <point x="110" y="57" type="line"/>
      <point x="113" y="54" type="line"/>
      <point x="500" y="62" type="line"/>
      <point x="492" y="184" type="line"/>
      <point x="322" y="170" type="line"/>
      <point x="553" y="400" type="line"/>
      <point x="456" y="497" type="line"/>
      <point x="226" y="266" type="line"/>
      <point x="240" y="436" type="line"/>
      <point x="118" y="444" type="line"/>
    </contour>
  </outline>
</glyph>
<glyph name="arrowupleft" format="1">
  <advance width="616"/>
  <outline>
    <contour>
      <point x="108" y="60" type="line"/>
      <point x="230" y="68" type="line"/>
      <point x="216" y="238" type="line"/>
      <point x="446" y="7" type="line"/>
      <point x="543" y="104" type="line"/>
      <point x="312" y="334" type="line"/>
      <point x="482" y="320" type="line"/>
      <point x="490" y="442" type="line"/>
      <point x="103" y="450" type="line"/>
      <point x="100" y="447" type="line"/>
    </contour>
  </outline>
</glyph>
<glyph name="arrowupright" format="1">
  <advance width="616"/>
  <outline>
    <contour>
      <point x="63" y="104" type="line"/>
      <point x="160" y="7" type="line"/>
      <point x="390" y="238" type="line"/>
      <point x="376" y="68" type="line"/>
      <point x="498" y="60" type="line"/>
      <point x="506" y="447" type="line"/>
      <point x="503" y="450" type="line"/>
      <point x="116" y="442" type="line"/>
      <point x="124" y="320" type="line"/>
      <point x="294" y="334" type="line"/>
    </contour>
  </outline>
</glyph>
<glyph name="betalatin" format="1">
  <advance width="614"/>
  <outline>
    <contour>
      <point x="228" y="-176" type="line"/>
      <point x="228" y="436" type="line" smooth="yes"/>
      <point x="228" y="530"/>
      <point x="250" y="574"/>
      <point x="302" y="574" type="curve" smooth="yes"/>
      <point x="336" y="574"/>
      <point x="368" y="552"/>
      <point x="368" y="506" type="curve" smooth="yes"/>
      <point x="368" y="454"/>
      <point x="338" y="410"/>
      <point x="284" y="410" type="curve" smooth="yes"/>
      <point x="272" y="410" type="line"/>
      <point x="272" y="292" type="line"/>
      <point x="338" y="292" type="line" smooth="yes"/>
      <point x="390" y="292"/>
      <point x="414" y="256"/>
      <point x="414" y="214" type="curve" smooth="yes"/>
      <point x="414" y="163"/>
      <point x="391" y="128"/>
      <point x="352" y="128" type="curve" smooth="yes"/>
      <point x="297" y="128"/>
      <point x="246" y="139"/>
      <point x="219" y="182" type="curve"/>
      <point x="216" y="52" type="line"/>
      <point x="268" y="10"/>
      <point x="328" y="-12"/>
      <point x="384" y="-12" type="curve" smooth="yes"/>
      <point x="470" y="-12"/>
      <point x="582" y="51"/>
      <point x="582" y="202" type="curve" smooth="yes"/>
      <point x="582" y="292"/>
      <point x="522" y="360"/>
      <point x="454" y="376" type="curve"/>
      <point x="454" y="380" type="line"/>
      <point x="504" y="412"/>
      <point x="532" y="458"/>
      <point x="532" y="523" type="curve" smooth="yes"/>
      <point x="532" y="651"/>
      <point x="418" y="708"/>
      <point x="302" y="708" type="curve" smooth="yes"/>
      <point x="134" y="708"/>
      <point x="58" y="598"/>
      <point x="58" y="456" type="curve" smooth="yes"/>
      <point x="58" y="-176" type="line"/>
    </contour>
  </outline>
</glyph>
<glyph name="brevecmb.cyr" format="1">
  <advance width="0"/>
  <outline>
    <contour>
      <point x="0" y="572" type="curve" smooth="yes"/>
      <point x="116.0" y="572.0"/>
      <point x="175.97591198" y="631.711290937"/>
      <point x="178" y="740" type="curve"/>
      <point x="46" y="740" type="line"/>
      <point x="43.947439596" y="684.580869092"/>
      <point x="34.0" y="662.0"/>
      <point x="0" y="662" type="curve" smooth="yes"/>
      <point x="-34.0" y="662.0"/>
      <point x="-43.947439596" y="684.580869092"/>
      <point x="-46" y="740" type="curve"/>
      <point x="-178" y="740" type="line"/>
      <point x="-175.97591198" y="631.711290937"/>
      <point x="-116.0" y="572.0"/>
    </contour>
    <contour>
      <point x="0" y="520" type="move" name="_aboveLC"/>
    </contour>
    <contour>
      <point x="0" y="520" type="move" name="aboveLC"/>
    </contour>
  </outline>
</glyph>
<glyph name="clickalveolar" format="1">
	<advance width="448"/>
	<outline>
		<contour>
			<point x="150" y="-176" type="line"/>
			<point x="302" y="-176" type="line"/>
			<point x="302" y="696" type="line"/>
			<point x="150" y="696" type="line"/>
		</contour>
		<contour>
			<point x="6" y="306" type="line"/>
			<point x="440" y="306" type="line"/>
			<point x="440" y="386" type="line"/>
			<point x="82" y="386" type="line"/>
			<point x="6" y="380" type="line"/>
		</contour>
		<contour>
			<point x="6" y="130" type="line"/>
			<point x="440" y="130" type="line"/>
			<point x="440" y="210" type="line"/>
			<point x="82" y="210" type="line"/>
			<point x="6" y="204" type="line"/>
		</contour>
	</outline>
</glyph>
<glyph name="clickdental" format="1">
  <advance width="278"/>
  <outline>
    <contour>
      <point x="84" y="-92" type="line"/>
      <point x="194" y="-92" type="line"/>
      <point x="194" y="696" type="line"/>
      <point x="84" y="696" type="line"/>
    </contour>
  </outline>
</glyph>
<glyph name="dialytikagrave" format="1">
  <advance width="560"/>
  <outline>
    <component base="dialytikagravecmb" xOffset="280"/>
    <contour>
      <point x="280" y="520" type="move" name="_aboveLC"/>
    </contour>
  </outline>
</glyph>
<glyph name="dotlessi.a" format="1">
  <advance width="0"/>
  <outline>
    <contour>
      <point x="0" y="520" type="move" name="aboveLC"/>
    </contour>
    <contour>
      <point x="0" y="-20" type="move" name="belowLC"/>
    </contour>
    <contour>
      <point x="0" y="0" type="move" name="baseLC"/>
    </contour>
    <contour>
      <point x="0" y="0" type="move" name="ogonekLC"/>
    </contour>
  </outline>
</glyph>
<glyph name="dotlessjstroke" format="1">
  <advance width="340"/>
  <outline>
    <contour>
      <point x="14" y="220" type="line"/>
      <point x="322" y="220" type="line"/>
      <point x="322" y="300" type="line"/>
      <point x="90" y="300" type="line"/>
      <point x="14" y="294" type="line"/>
    </contour>
    <component base="dotlessj" xOffset="24"/>
    <contour>
      <point x="170" y="520" type="move" name="aboveLC"/>
    </contour>
    <contour>
      <point x="170" y="-20" type="move" name="belowLC"/>
    </contour>
  </outline>
</glyph>
<glyph name="dotlessjstrokehook" format="1">
	<advance width="340"/>
	<outline>
		<contour>
			<point x="14" y="220" type="line"/>
			<point x="322" y="220" type="line"/>
			<point x="322" y="300" type="line"/>
			<point x="90" y="300" type="line"/>
			<point x="14" y="294" type="line"/>
		</contour>
		<component base="esh" xOffset="24"/>
		<contour>
			<point name="aboveUC" x="170" y="730" type="move"/>
		</contour>
		<contour>
			<point name="belowLC" x="170" y="-20" type="move"/>
		</contour>
	</outline>
</glyph>
<glyph name="emdash.sups" format="1">
  <advance width="564"/>
  <outline>
    <contour>
      <point x="44" y="498" type="line"/>
      <point x="521" y="498" type="line"/>
      <point x="521" y="570" type="line"/>
      <point x="44" y="570" type="line"/>
    </contour>
  </outline>
</glyph>
<glyph name="en" format="1">
	<advance width="590"/>
	<outline>
		<contour>
			<point x="58" y="0" type="line"/>
			<point x="230" y="0" type="line"/>
			<point x="230" y="178" type="line"/>
			<point x="360" y="178" type="line"/>
			<point x="360" y="0" type="line"/>
			<point x="532" y="0" type="line"/>
			<point x="532" y="500" type="line"/>
			<point x="360" y="500" type="line"/>
			<point x="360" y="328" type="line"/>
			<point x="230" y="328" type="line"/>
			<point x="230" y="500" type="line"/>
			<point x="58" y="500" type="line"/>
		</contour>
		<contour>
			<point name="aboveLC" x="295" y="520" type="move"/>
		</contour>
	</outline>
</glyph>
<glyph name="endash.sups" format="1">
	<advance width="350"/>
	<outline>
		<contour>
			<point x="44" y="498" type="line"/>
			<point x="306" y="498" type="line"/>
			<point x="306" y="570" type="line"/>
			<point x="44" y="570" type="line"/>
		</contour>
	</outline>
</glyph>
<glyph name="eopen.sups" format="1">
	<advance width="309"/>
	<outline>
		<contour>
			<point x="180" y="360" type="curve" smooth="yes"/>
			<point x="220" y="360"/>
			<point x="256" y="367"/>
			<point x="297" y="392" type="curve"/>
			<point x="252" y="466" type="line"/>
			<point x="230" y="455"/>
			<point x="206" y="449"/>
			<point x="191" y="449" type="curve" smooth="yes"/>
			<point x="161" y="449"/>
			<point x="140" y="460"/>
			<point x="140" y="477" type="curve" smooth="yes"/>
			<point x="140" y="494"/>
			<point x="149" y="498"/>
			<point x="175" y="498" type="curve" smooth="yes"/>
			<point x="235" y="498" type="line"/>
			<point x="235" y="575" type="line"/>
			<point x="186" y="575" type="line" smooth="yes"/>
			<point x="165" y="575"/>
			<point x="154" y="580"/>
			<point x="154" y="595" type="curve" smooth="yes"/>
			<point x="154" y="608"/>
			<point x="165" y="620"/>
			<point x="188" y="620" type="curve" smooth="yes"/>
			<point x="210" y="620"/>
			<point x="227" y="614"/>
			<point x="248" y="604" type="curve"/>
			<point x="291" y="680" type="line"/>
			<point x="256" y="700"/>
			<point x="220" y="709"/>
			<point x="181" y="709" type="curve" smooth="yes"/>
			<point x="106" y="709"/>
			<point x="38" y="680"/>
			<point x="38" y="611" type="curve" smooth="yes"/>
			<point x="38" y="586"/>
			<point x="54" y="556"/>
			<point x="92" y="545" type="curve"/>
			<point x="92" y="542" type="line"/>
			<point x="50" y="531"/>
			<point x="24" y="508"/>
			<point x="24" y="464" type="curve" smooth="yes"/>
			<point x="24" y="394"/>
			<point x="104" y="360"/>
		</contour>
	</outline>
</glyph>
<glyph name="eopenreversedclosed" format="1">
  <advance width="574"/>
  <outline>
    <contour>
      <point x="302" y="-12" type="curve" smooth="yes"/>
      <point x="416" y="-12"/>
      <point x="532" y="40"/>
      <point x="532" y="144" type="curve" smooth="yes"/>
      <point x="532" y="210"/>
      <point x="492" y="246"/>
      <point x="429" y="262" type="curve"/>
      <point x="429" y="266" type="line"/>
      <point x="486" y="282"/>
      <point x="510" y="328"/>
      <point x="510" y="366" type="curve" smooth="yes"/>
      <point x="510" y="469"/>
      <point x="412" y="512"/>
      <point x="300" y="512" type="curve" smooth="yes"/>
      <point x="162" y="512"/>
      <point x="32" y="426"/>
      <point x="32" y="250" type="curve" smooth="yes"/>
      <point x="32" y="74"/>
      <point x="154" y="-12"/>
    </contour>
    <contour>
      <point x="302" y="118" type="curve" smooth="yes"/>
      <point x="240" y="118"/>
      <point x="208" y="154"/>
      <point x="208" y="250" type="curve" smooth="yes"/>
      <point x="208" y="346"/>
      <point x="238" y="382"/>
      <point x="296" y="382" type="curve" smooth="yes"/>
      <point x="322" y="382"/>
      <point x="342" y="364"/>
      <point x="342" y="342" type="curve" smooth="yes"/>
      <point x="342" y="318"/>
      <point x="327" y="310"/>
      <point x="300" y="310" type="curve" smooth="yes"/>
      <point x="267" y="310" type="line"/>
      <point x="267" y="198" type="line"/>
      <point x="316" y="198" type="line" smooth="yes"/>
      <point x="350" y="198"/>
      <point x="364" y="190"/>
      <point x="364" y="162" type="curve" smooth="yes"/>
      <point x="364" y="134"/>
      <point x="338" y="118"/>
    </contour>
    <contour>
      <point x="292" y="522" type="move" name="aboveLC"/>
    </contour>
    <contour>
      <point x="282" y="-22" type="move" name="belowLC"/>
    </contour>
  </outline>
</glyph>
<glyph name="etaiotasub" format="1">
	<advance width="570"/>
	<outline>
		<component base="eta"/>
		<component base="iotasubscriptcmb" xOffset="146"/>
		<contour>
			<point name="aboveLC" x="285" y="520" type="move"/>
		</contour>
	</outline>
</glyph>
<glyph name="ezhcurl" format="1">
  <advance width="474"/>
  <outline>
    <contour>
      <point x="210" y="527" type="move" name="aboveLC"/>
    </contour>
    <contour>
      <point x="452" y="44" type="curve" smooth="yes"/>
      <point x="452" y="-86.5913"/>
      <point x="342" y="-188"/>
      <point x="194" y="-188" type="curve" smooth="yes"/>
      <point x="78" y="-188"/>
      <point x="12" y="-123.62"/>
      <point x="12" y="-43.5801" type="curve" smooth="yes"/>
      <point x="12" y="32.9805"/>
      <point x="73.6748" y="79.96"/>
      <point x="163" y="79.96" type="curve" smooth="yes"/>
      <point x="255.9" y="79.96"/>
      <point x="355" y="28"/>
      <point x="437.45" y="-137.635" type="curve"/>
      <point x="338" y="-182.92" type="line"/>
      <point x="290" y="-66"/>
      <point x="224" y="8"/>
      <point x="174" y="8" type="curve" smooth="yes"/>
      <point x="140.35" y="8"/>
      <point x="128.1" y="-8"/>
      <point x="128.1" y="-22" type="curve" smooth="yes"/>
      <point x="128.1" y="-40"/>
      <point x="150.15" y="-58"/>
      <point x="174" y="-58" type="curve" smooth="yes"/>
      <point x="238" y="-58"/>
      <point x="280" y="-14"/>
      <point x="280" y="40" type="curve" smooth="yes"/>
      <point x="280" y="87"/>
      <point x="246" y="118"/>
      <point x="198" y="118" type="curve" smooth="yes"/>
      <point x="172" y="118"/>
      <point x="164" y="116"/>
      <point x="142" y="108" type="curve"/>
      <point x="88" y="188" type="line"/>
      <point x="224" y="366" type="line"/>
      <point x="36" y="366" type="line"/>
      <point x="36" y="500" type="line"/>
      <point x="428" y="500" type="line"/>
      <point x="428" y="408" type="line"/>
      <point x="294" y="235" type="line"/>
      <point x="396" y="218"/>
      <point x="452" y="139"/>
    </contour>
  </outline>
</glyph>
<glyph name="glottalstopinverted" format="1">
  <advance width="460"/>
  <outline>
    <contour>
      <point x="122" y="696" type="line"/>
      <point x="122" y="382" type="line"/>
      <point x="235" y="306"/>
      <point x="272" y="264"/>
      <point x="272" y="206" type="curve" smooth="yes"/>
      <point x="272" y="153"/>
      <point x="240" y="126"/>
      <point x="192" y="126" type="curve" smooth="yes"/>
      <point x="148" y="126"/>
      <point x="108" y="152"/>
      <point x="76" y="186" type="curve"/>
      <point x="-8" y="78" type="line"/>
      <point x="42" y="26"/>
      <point x="113" y="-12"/>
      <point x="212" y="-12" type="curve" smooth="yes"/>
      <point x="336" y="-12"/>
      <point x="444" y="57"/>
      <point x="444" y="198" type="curve" smooth="yes"/>
      <point x="444" y="306"/>
      <point x="382" y="371"/>
      <point x="294" y="444" type="curve"/>
      <point x="294" y="696" type="line"/>
    </contour>
  </outline>
</glyph>
<glyph name="glottalstopstroke" format="1">
  <advance width="490"/>
  <outline>
    <contour>
      <point x="138" y="0" type="line"/>
      <point x="310" y="0" type="line"/>
      <point x="310" y="234" type="line"/>
      <point x="474" y="234" type="line"/>
      <point x="474" y="314" type="line"/>
      <point x="350" y="314" type="line"/>
      <point x="411.122514955" y="371.961005561"/>
      <point x="460.0" y="429.0"/>
      <point x="460" y="498" type="curve" smooth="yes"/>
      <point x="460" y="639"/>
      <point x="352" y="708"/>
      <point x="228" y="708" type="curve" smooth="yes"/>
      <point x="129" y="708"/>
      <point x="58" y="670"/>
      <point x="8" y="618" type="curve"/>
      <point x="92" y="510" type="line"/>
      <point x="124" y="544"/>
      <point x="164" y="570"/>
      <point x="208" y="570" type="curve" smooth="yes"/>
      <point x="256" y="570"/>
      <point x="288" y="543"/>
      <point x="288" y="490" type="curve" smooth="yes"/>
      <point x="288" y="442"/>
      <point x="257" y="390"/>
      <point x="158" y="314" type="curve"/>
      <point x="88" y="314" type="line"/>
      <point x="12" y="308" type="line"/>
      <point x="12" y="234" type="line"/>
      <point x="138" y="234" type="line"/>
    </contour>
    <contour>
      <point x="245" y="730.0" type="move" name="aboveUC"/>
    </contour>
    <contour>
      <point x="245" y="-20" type="move" name="belowLC"/>
    </contour>
  </outline>
</glyph>
<glyph name="glottalstopstrokereversed" format="1">
  <advance width="490"/>
  <outline>
    <contour>
      <point x="180" y="0" type="line"/>
      <point x="352" y="0" type="line"/>
      <point x="352" y="234" type="line"/>
      <point x="478" y="234" type="line"/>
      <point x="478" y="314" type="line"/>
      <point x="332" y="314" type="line"/>
      <point x="233" y="390"/>
      <point x="202" y="442"/>
      <point x="202" y="490" type="curve" smooth="yes"/>
      <point x="202" y="543"/>
      <point x="238" y="570"/>
      <point x="292" y="570" type="curve" smooth="yes"/>
      <point x="332" y="570"/>
      <point x="369" y="544"/>
      <point x="398" y="510" type="curve"/>
      <point x="482" y="618" type="line"/>
      <point x="434" y="670"/>
      <point x="366" y="708"/>
      <point x="272" y="708" type="curve" smooth="yes"/>
      <point x="143" y="708"/>
      <point x="30" y="639"/>
      <point x="30" y="498" type="curve" smooth="yes"/>
      <point x="30" y="429"/>
      <point x="80" y="372"/>
      <point x="140" y="314" type="curve"/>
      <point x="92" y="314" type="line"/>
      <point x="16" y="308" type="line"/>
      <point x="16" y="234" type="line"/>
      <point x="180" y="234" type="line"/>
    </contour>
    <contour>
      <point x="245" y="730" type="move" name="aboveUC"/>
    </contour>
    <contour>
      <point x="245" y="-20" type="move" name="belowLC"/>
    </contour>
  </outline>
</glyph>
<glyph name="gsmallhook" format="1">
  <advance width="524"/>
  <outline>
    <contour>
      <point x="336" y="456" type="curve"/>
      <point x="472" y="452" type="line"/>
      <point x="457" y="465"/>
      <point x="442" y="483"/>
      <point x="442" y="505" type="curve" smooth="yes"/>
      <point x="442" y="530"/>
      <point x="464" y="540"/>
      <point x="492" y="540" type="curve" smooth="yes"/>
      <point x="502" y="540"/>
      <point x="508" y="539"/>
      <point x="518" y="536" type="curve"/>
      <point x="548" y="662" type="line"/>
      <point x="527" y="668"/>
      <point x="503" y="674"/>
      <point x="459" y="674" type="curve" smooth="yes"/>
      <point x="364" y="674"/>
      <point x="311" y="613"/>
      <point x="311" y="542" type="curve" smooth="yes"/>
      <point x="311" y="515"/>
      <point x="325" y="483"/>
    </contour>
    <contour>
      <point x="291" y="-12" type="curve" smooth="yes"/>
      <point x="370" y="-12"/>
      <point x="443" y="16"/>
      <point x="486" y="55" type="curve"/>
      <point x="486" y="310" type="line"/>
      <point x="266" y="310" type="line"/>
      <point x="266" y="198" type="line"/>
      <point x="340" y="198" type="line"/>
      <point x="340" y="126" type="line"/>
      <point x="330" y="120"/>
      <point x="318" y="118"/>
      <point x="304" y="118" type="curve" smooth="yes"/>
      <point x="246" y="118"/>
      <point x="206" y="164"/>
      <point x="206" y="247" type="curve" smooth="yes"/>
      <point x="206" y="344"/>
      <point x="258" y="382"/>
      <point x="305" y="382" type="curve" smooth="yes"/>
      <point x="348" y="382"/>
      <point x="365" y="369"/>
      <point x="396" y="350" type="curve"/>
      <point x="472" y="452" type="line"/>
      <point x="426" y="487"/>
      <point x="379" y="512"/>
      <point x="293" y="512" type="curve" smooth="yes"/>
      <point x="164" y="512"/>
      <point x="32" y="418"/>
      <point x="32" y="247" type="curve" smooth="yes"/>
      <point x="32" y="67"/>
      <point x="160" y="-12"/>
    </contour>
    <contour>
      <point x="324.0" y="522.0" type="move" name="aboveUC"/>
    </contour>
    <contour>
      <point x="328.0" y="-22.0" type="move" name="belowLC"/>
    </contour>
  </outline>
</glyph>
<glyph name="hfishhooktailturned" format="1">
  <advance width="696"/>
  <outline>
    <contour>
      <point x="650" y="-188" type="curve" smooth="yes"/>
      <point x="691" y="-188"/>
      <point x="714" y="-182"/>
      <point x="734" y="-174" type="curve"/>
      <point x="704" y="-48" type="line"/>
      <point x="694" y="-52"/>
      <point x="687" y="-54"/>
      <point x="678" y="-54" type="curve" smooth="yes"/>
      <point x="649" y="-54"/>
      <point x="638" y="-37"/>
      <point x="638" y="10" type="curve" smooth="yes"/>
      <point x="638" y="500" type="line"/>
      <point x="466" y="500" type="line"/>
      <point x="466" y="178" type="line"/>
      <point x="444" y="146"/>
      <point x="422" y="134"/>
      <point x="390" y="134" type="curve" smooth="yes"/>
      <point x="356" y="134"/>
      <point x="340" y="150"/>
      <point x="340" y="214" type="curve" smooth="yes"/>
      <point x="340" y="308" type="line" smooth="yes"/>
      <point x="340" y="415"/>
      <point x="298" y="512"/>
      <point x="156" y="512" type="curve" smooth="yes"/>
      <point x="115" y="512"/>
      <point x="92" y="506"/>
      <point x="72" y="498" type="curve"/>
      <point x="102" y="372" type="line"/>
      <point x="112" y="376"/>
      <point x="119" y="378"/>
      <point x="128" y="378" type="curve" smooth="yes"/>
      <point x="157" y="378"/>
      <point x="168" y="361"/>
      <point x="168" y="314" type="curve"/>
      <point x="168" y="192" type="line" smooth="yes"/>
      <point x="168" y="68"/>
      <point x="214" y="-12"/>
      <point x="324" y="-12" type="curve" smooth="yes"/>
      <point x="392" y="-12"/>
      <point x="438" y="20"/>
      <point x="466" y="49" type="curve"/>
      <point x="466" y="16" type="line" smooth="yes"/>
      <point x="466" y="-91"/>
      <point x="508" y="-188"/>
    </contour>
    <contour>
      <point x="422.0" y="-22.0" type="move" name="belowLC"/>
    </contour>
    <contour>
      <point x="404.0" y="522.0" type="move" name="aboveLC"/>
    </contour>
  </outline>
</glyph>
<glyph name="hfishhookturned" format="1">
  <advance width="696"/>
  <outline>
    <contour>
      <point x="466" y="-176" type="line"/>
      <point x="638" y="-176" type="line"/>
      <point x="638" y="500" type="line"/>
      <point x="466" y="500" type="line"/>
      <point x="466" y="178" type="line"/>
      <point x="444" y="146"/>
      <point x="422" y="134"/>
      <point x="390" y="134" type="curve" smooth="yes"/>
      <point x="356" y="134"/>
      <point x="340" y="150"/>
      <point x="340" y="214" type="curve" smooth="yes"/>
      <point x="340" y="308" type="line" smooth="yes"/>
      <point x="340" y="415"/>
      <point x="298" y="512"/>
      <point x="156" y="512" type="curve" smooth="yes"/>
      <point x="115" y="512"/>
      <point x="92" y="506"/>
      <point x="72" y="498" type="curve"/>
      <point x="102" y="372" type="line"/>
      <point x="112" y="376"/>
      <point x="119" y="378"/>
      <point x="128" y="378" type="curve" smooth="yes"/>
      <point x="157" y="378"/>
      <point x="168" y="361"/>
      <point x="168" y="314" type="curve"/>
      <point x="168" y="192" type="line" smooth="yes"/>
      <point x="168" y="68"/>
      <point x="214" y="-12"/>
      <point x="324" y="-12" type="curve" smooth="yes"/>
      <point x="392" y="-12"/>
      <point x="440" y="20"/>
      <point x="474" y="56" type="curve"/>
      <point x="466" y="-34" type="line"/>
    </contour>
    <contour>
      <point x="404.0" y="522.0" type="move" name="aboveLC"/>
    </contour>
    <contour>
      <point x="422.0" y="-22.0" type="move" name="belowLC"/>
    </contour>
  </outline>
</glyph>
<glyph name="hturnedfishhook" format="1">
  <advance width="696"/>
  <outline>
    <contour>
      <point x="404" y="522" type="move" name="aboveLC"/>
    </contour>
    <contour>
      <point x="422" y="-22" type="move" name="belowLC"/>
    </contour>
    <contour>
      <point x="168" y="192" type="line" smooth="yes"/>
      <point x="168" y="68"/>
      <point x="214" y="-12"/>
      <point x="324" y="-12" type="curve" smooth="yes"/>
      <point x="392" y="-12"/>
      <point x="440" y="20"/>
      <point x="474" y="56" type="curve"/>
      <point x="466" y="-34" type="line"/>
      <point x="466" y="-176" type="line"/>
      <point x="638" y="-176" type="line"/>
      <point x="638" y="500" type="line"/>
      <point x="466" y="500" type="line"/>
      <point x="466" y="178" type="line"/>
      <point x="444" y="146"/>
      <point x="422" y="134"/>
      <point x="390" y="134" type="curve" smooth="yes"/>
      <point x="356" y="134"/>
      <point x="340" y="150"/>
      <point x="340" y="214" type="curve" smooth="yes"/>
      <point x="340" y="300" type="line" smooth="yes"/>
      <point x="340" y="412"/>
      <point x="281" y="512"/>
      <point x="122" y="512" type="curve" smooth="yes"/>
      <point x="68" y="512"/>
      <point x="26" y="506"/>
      <point x="0" y="498" type="curve"/>
      <point x="26" y="354" type="line"/>
      <point x="56" y="362"/>
      <point x="66" y="364"/>
      <point x="96" y="364" type="curve" smooth="yes"/>
      <point x="124" y="364"/>
      <point x="168" y="341"/>
      <point x="168" y="262" type="curve" smooth="yes"/>
    </contour>
  </outline>
</glyph>
<glyph name="hturnedfishhooktail" format="1">
  <advance width="696"/>
  <outline>
    <contour>
      <point x="422" y="-22" type="move" name="belowLC"/>
    </contour>
    <contour>
      <point x="404" y="522" type="move" name="aboveLC"/>
    </contour>
    <contour>
      <point x="466" y="16" type="line" smooth="yes"/>
      <point x="466" y="-91"/>
      <point x="508" y="-188"/>
      <point x="650" y="-188" type="curve" smooth="yes"/>
      <point x="691" y="-188"/>
      <point x="714" y="-182"/>
      <point x="734" y="-174" type="curve"/>
      <point x="704" y="-48" type="line"/>
      <point x="694" y="-52"/>
      <point x="687" y="-54"/>
      <point x="678" y="-54" type="curve" smooth="yes"/>
      <point x="649" y="-54"/>
      <point x="638" y="-37"/>
      <point x="638" y="10" type="curve" smooth="yes"/>
      <point x="638" y="500" type="line"/>
      <point x="466" y="500" type="line"/>
      <point x="466" y="178" type="line"/>
      <point x="444" y="146"/>
      <point x="422" y="134"/>
      <point x="390" y="134" type="curve" smooth="yes"/>
      <point x="356" y="134"/>
      <point x="340" y="150"/>
      <point x="340" y="214" type="curve" smooth="yes"/>
      <point x="340" y="300" type="line" smooth="yes"/>
      <point x="340" y="412"/>
      <point x="281" y="512"/>
      <point x="122" y="512" type="curve" smooth="yes"/>
      <point x="68" y="512"/>
      <point x="26" y="506"/>
      <point x="0" y="498" type="curve"/>
      <point x="26" y="354" type="line"/>
      <point x="56" y="362"/>
      <point x="66" y="364"/>
      <point x="96" y="364" type="curve" smooth="yes"/>
      <point x="124" y="364"/>
      <point x="168" y="341"/>
      <point x="168" y="262" type="curve" smooth="yes"/>
      <point x="168" y="192" type="line" smooth="yes"/>
      <point x="168" y="68"/>
      <point x="214" y="-12"/>
      <point x="324" y="-12" type="curve" smooth="yes"/>
      <point x="392" y="-12"/>
      <point x="438" y="20"/>
      <point x="466" y="49" type="curve"/>
    </contour>
  </outline>
</glyph>
<glyph name="hyphen.sups" format="1">
	<advance width="257"/>
	<outline>
		<contour>
			<point x="44" y="494" type="line"/>
			<point x="214" y="494" type="line"/>
			<point x="214" y="576" type="line"/>
			<point x="44" y="576" type="line"/>
		</contour>
	</outline>
</glyph>
<glyph name="i" format="1">
  <advance width="288"/>
  <outline>
    <component base="dotlessi"/>
    <component base="dotaccentcmb" xOffset="144"/>
    <contour>
      <point x="144" y="730" type="move" name="aboveUC"/>
    </contour>
    <contour>
      <point x="144" y="-20" type="move" name="belowLC"/>
    </contour>
    <contour>
      <point x="190" y="0" type="move" name="ogonekLC"/>
    </contour>
    <contour>
      <point x="144" y="0" type="move" name="baseLC"/>
    </contour>
    <contour>
      <point x="144" y="520" type="move" name="aboveLC"/>
    </contour>
  </outline>
</glyph>
<glyph name="iotasubscript" format="1">
  <advance width="560"/>
  <outline>
    <component base="iotasubscriptcmb" xOffset="280"/>
    <contour>
      <point x="280" y="0" type="move" name="_belowLC"/>
    </contour>
  </outline>
</glyph>
<glyph name="istroke" format="1">
	<advance width="340"/>
	<outline>
		<component base="istroke.d"/>
		<component base="dotaccentcmb" xOffset="170"/>
		<contour>
			<point name="belowLC" x="170" y="-20" type="move"/>
		</contour>
		<contour>
			<point name="baseLC" x="170" y="0" type="move"/>
		</contour>
		<contour>
			<point name="aboveUC" x="170" y="520" type="move"/>
		</contour>
	</outline>
</glyph>
<glyph name="j" format="1">
  <advance width="290"/>
  <outline>
    <component base="dotlessj"/>
    <component base="dotaccentcmb" xOffset="146.0"/>
    <contour>
      <point x="146" y="730" type="move" name="aboveUC"/>
    </contour>
    <contour>
      <point x="145" y="-20" type="move" name="belowLC"/>
    </contour>
    <contour>
      <point x="145" y="520" type="move" name="aboveLC"/>
    </contour>
  </outline>
</glyph>
<glyph name="jcrossedtail" format="1">
  <advance width="390"/>
  <outline>
    <component base="jcrossedtail.d"/>
    <component base="dotaccentcmb" xOffset="246"/>
    <contour>
      <point x="195" y="-20" type="move" name="belowLC"/>
    </contour>
  </outline>
</glyph>
<glyph name="kturned" format="1">
  <advance width="568"/>
  <outline>
    <contour>
      <point x="432" y="-218" type="move" name="belowLC"/>
    </contour>
    <contour>
      <point x="250" y="522" type="move" name="aboveLC"/>
    </contour>
    <contour>
      <point x="510" y="500" type="line"/>
      <point x="342" y="500" type="line"/>
      <point x="342" y="380" type="line"/>
      <point x="290" y="322" type="line"/>
      <point x="190" y="500" type="line"/>
      <point x="4" y="500" type="line"/>
      <point x="192" y="208" type="line"/>
      <point x="14" y="0" type="line"/>
      <point x="200" y="0" type="line"/>
      <point x="338" y="174" type="line"/>
      <point x="342" y="174" type="line"/>
      <point x="342" y="-176" type="line"/>
      <point x="510" y="-176" type="line"/>
    </contour>
  </outline>
</glyph>
<glyph name="l.a" format="1">
  <advance width="288"/>
  <outline>
    <contour>
      <point x="58" y="0" type="line"/>
      <point x="230" y="0" type="line"/>
      <point x="230" y="696" type="line"/>
      <point x="58" y="696" type="line"/>
    </contour>
    <contour>
      <point x="144" y="730" type="move" name="aboveLC"/>
    </contour>
    <contour>
      <point x="144" y="-20" type="move" name="belowLC"/>
    </contour>
  </outline>
</glyph>
<glyph name="l.alt" format="1">
  <advance width="288"/>
  <outline>
    <contour>
      <point x="58" y="0" type="line"/>
      <point x="230" y="0" type="line"/>
      <point x="230" y="696" type="line"/>
      <point x="58" y="696" type="line"/>
    </contour>
    <contour>
      <point x="144" y="730" type="move" name="aboveLC"/>
    </contour>
    <contour>
      <point x="144" y="-20" type="move" name="belowLC"/>
    </contour>
  </outline>
</glyph>
<glyph name="lbelthook" format="1">
  <advance width="406"/>
  <outline>
    <contour>
      <point x="150" y="16" type="line" smooth="yes"/>
      <point x="150" y="-91"/>
      <point x="192" y="-188"/>
      <point x="334" y="-188" type="curve" smooth="yes"/>
      <point x="375" y="-188"/>
      <point x="398" y="-182"/>
      <point x="418" y="-174" type="curve"/>
      <point x="388" y="-48" type="line"/>
      <point x="378" y="-52"/>
      <point x="371" y="-54"/>
      <point x="362" y="-54" type="curve" smooth="yes"/>
      <point x="333" y="-54"/>
      <point x="322" y="-37"/>
      <point x="322" y="10" type="curve" smooth="yes"/>
      <point x="322" y="696" type="line"/>
      <point x="150" y="696" type="line"/>
    </contour>
    <contour>
      <point x="143" y="282" type="curve" smooth="yes"/>
      <point x="388" y="282" type="line"/>
      <point x="388" y="362" type="line"/>
      <point x="127" y="362" type="line" smooth="yes"/>
      <point x="92" y="362"/>
      <point x="76" y="376"/>
      <point x="76" y="393" type="curve" smooth="yes"/>
      <point x="76" y="409"/>
      <point x="85" y="420"/>
      <point x="104" y="420" type="curve" smooth="yes"/>
      <point x="141" y="420"/>
      <point x="150" y="380"/>
      <point x="150" y="362" type="curve"/>
      <point x="209" y="342" type="line"/>
      <point x="209" y="381"/>
      <point x="197" y="498"/>
      <point x="98" y="498" type="curve" smooth="yes"/>
      <point x="34" y="498"/>
      <point x="-12" y="453"/>
      <point x="-12" y="392" type="curve" smooth="yes"/>
      <point x="-12" y="331"/>
      <point x="34" y="282"/>
    </contour>
  </outline>
</glyph>
<glyph name="lbeltretroflex" format="1">
  <advance width="406"/>
  <outline>
    <contour>
      <point x="143" y="282" type="curve" smooth="yes"/>
      <point x="388" y="282" type="line"/>
      <point x="388" y="362" type="line"/>
      <point x="127" y="362" type="line" smooth="yes"/>
      <point x="92" y="362"/>
      <point x="76" y="376"/>
      <point x="76" y="393" type="curve" smooth="yes"/>
      <point x="76" y="409"/>
      <point x="85" y="420"/>
      <point x="104" y="420" type="curve" smooth="yes"/>
      <point x="141" y="420"/>
      <point x="150" y="380"/>
      <point x="150" y="362" type="curve"/>
      <point x="209" y="342" type="line"/>
      <point x="209" y="381"/>
      <point x="197" y="498"/>
      <point x="98" y="498" type="curve" smooth="yes"/>
      <point x="34" y="498"/>
      <point x="-12" y="453"/>
      <point x="-12" y="392" type="curve" smooth="yes"/>
      <point x="-12" y="331"/>
      <point x="34" y="282"/>
    </contour>
    <component base="lretroflex" xOffset="92"/>
  </outline>
</glyph>
<glyph name="lezh" format="1">
	<advance width="664"/>
	<outline>
		<contour>
			<point x="119" y="366" type="line"/>
			<point x="354" y="366" type="line"/>
			<point x="354" y="500" type="line"/>
			<point x="119" y="500" type="line"/>
		</contour>
		<component base="l.a"/>
		<component base="ezh" xOffset="190"/>
		<contour>
			<point name="aboveUC" x="144" y="730" type="move"/>
		</contour>
		<contour>
			<point name="belowLC" x="144" y="-20" type="move"/>
		</contour>
	</outline>
</glyph>
<glyph name="lmiddletilde" format="1">
  <advance width="298"/>
  <outline>
    <component base="l"/>
    <component base="tildeoverlaycmb" xOffset="143.0" yOffset="110.0"/>
    <contour>
      <point x="170.0" y="-20.0" type="move" name="belowLC"/>
    </contour>
    <contour>
      <point x="144.0" y="730.0" type="move" name="aboveUC"/>
    </contour>
    <contour>
      <point x="149" y="520" type="move" name="aboveLC"/>
    </contour>
  </outline>
</glyph>
<glyph name="lslash.a" format="1">
  <advance width="316"/>
  <outline>
    <contour>
      <point x="30" y="232" type="line"/>
      <point x="78" y="260" type="line"/>
      <point x="209" y="320" type="line"/>
      <point x="346" y="394" type="line"/>
      <point x="288" y="500" type="line"/>
      <point x="209" y="456" type="line"/>
      <point x="78" y="396" type="line"/>
      <point x="-28" y="338" type="line"/>
    </contour>
    <component base="l.a" xOffset="12"/>
  </outline>
</glyph>
<glyph name="lsmall" format="1">
	<advance width="440"/>
	<outline>
		<contour>
			<point x="58" y="0" type="line"/>
			<point x="414" y="0" type="line"/>
			<point x="414" y="134" type="line"/>
			<point x="230" y="134" type="line"/>
			<point x="230" y="500" type="line"/>
			<point x="58" y="500" type="line"/>
		</contour>
		<contour>
			<point name="aboveUC" x="148" y="564" type="move"/>
		</contour>
		<contour>
			<point name="belowLC" x="252" y="-20" type="move"/>
		</contour>
		<contour>
			<point name="aboveLC" x="220" y="520" type="move"/>
		</contour>
	</outline>
</glyph>
<glyph name="ltilde" format="1">
  <advance width="456"/>
  <outline>
    <contour>
      <point x="227" y="730" type="move" name="aboveLC"/>
    </contour>
    <contour>
      <point x="227" y="-22" type="move" name="belowLC"/>
    </contour>
    <contour>
      <point x="312" y="234" type="curve" smooth="yes"/>
      <point x="364" y="234"/>
      <point x="418" y="262"/>
      <point x="472" y="342" type="curve"/>
      <point x="384" y="410" type="line"/>
      <point x="364" y="376"/>
      <point x="341" y="354"/>
      <point x="314" y="354" type="curve" smooth="yes"/>
      <point x="260" y="354"/>
      <point x="228" y="426"/>
      <point x="144" y="426" type="curve" smooth="yes"/>
      <point x="92" y="426"/>
      <point x="38" y="398"/>
      <point x="-16" y="318" type="curve"/>
      <point x="72" y="250" type="line"/>
      <point x="92" y="284"/>
      <point x="116" y="306"/>
      <point x="142" y="306" type="curve" smooth="yes"/>
      <point x="196" y="306"/>
      <point x="228" y="234"/>
    </contour>
    <contour>
      <point x="296" y="-12" type="curve" smooth="yes"/>
      <point x="334" y="-12"/>
      <point x="362" y="-6"/>
      <point x="380" y="2" type="curve"/>
      <point x="360" y="128" type="line"/>
      <point x="352" y="126"/>
      <point x="348" y="126"/>
      <point x="342" y="126" type="curve" smooth="yes"/>
      <point x="330" y="126"/>
      <point x="314" y="136"/>
      <point x="314" y="170" type="curve" smooth="yes"/>
      <point x="314" y="696" type="line"/>
      <point x="142" y="696" type="line"/>
      <point x="142" y="176" type="line" smooth="yes"/>
      <point x="142" y="64"/>
      <point x="180" y="-12"/>
    </contour>
  </outline>
</glyph>
<glyph name="mturned" format="1">
	<advance width="868"/>
	<outline>
		<component base="m" xScale="-1" yScale="-1" xOffset="872" yOffset="500"/>
		<contour>
			<point name="aboveLC" x="446" y="520" type="move"/>
		</contour>
		<contour>
			<point name="belowLC" x="444" y="-20" type="move"/>
		</contour>
	</outline>
</glyph>
<glyph name="ohorn" format="1">
  <advance width="560"/>
  <outline>
    <contour>
      <point x="456" y="438" type="line"/>
      <point x="528" y="460"/>
      <point x="580" y="511"/>
      <point x="580" y="592" type="curve" smooth="yes"/>
      <point x="580" y="632"/>
      <point x="564" y="672"/>
      <point x="548" y="692" type="curve"/>
      <point x="422" y="638" type="line"/>
      <point x="430" y="625"/>
      <point x="438" y="604"/>
      <point x="438" y="580" type="curve" smooth="yes"/>
      <point x="438" y="525"/>
      <point x="412" y="502"/>
      <point x="378" y="492" type="curve"/>
    </contour>
    <component base="o"/>
    <contour>
      <point x="280" y="520" type="move" name="aboveLC"/>
    </contour>
    <contour>
      <point x="280" y="-20" type="move" name="belowLC"/>
    </contour>
  </outline>
</glyph>
<glyph name="omegaclosed" format="1">
  <advance width="764"/>
  <outline>
    <contour>
      <point x="382" y="-22" type="move" name="belowLC"/>
    </contour>
    <contour>
      <point x="382" y="522" type="move" name="aboveLC"/>
    </contour>
    <contour>
      <point x="382" y="512" type="curve" smooth="yes"/>
      <point x="100.625" y="512"/>
      <point x="36" y="304"/>
      <point x="36" y="230" type="curve" smooth="yes"/>
      <point x="36" y="54"/>
      <point x="112" y="-12"/>
      <point x="240" y="-12" type="curve" smooth="yes"/>
      <point x="300" y="-12"/>
      <point x="351" y="12"/>
      <point x="379" y="84" type="curve"/>
      <point x="383" y="84" type="line"/>
      <point x="411" y="12"/>
      <point x="470" y="-12"/>
      <point x="530" y="-12" type="curve" smooth="yes"/>
      <point x="660" y="-12"/>
      <point x="728" y="76"/>
      <point x="728" y="218" type="curve" smooth="yes"/>
      <point x="728" y="348"/>
      <point x="631" y="512"/>
    </contour>
    <contour>
      <point x="378" y="380" type="curve" smooth="yes"/>
      <point x="480" y="380"/>
      <point x="566" y="327"/>
      <point x="566" y="238" type="curve" smooth="yes"/>
      <point x="566" y="173"/>
      <point x="546" y="126"/>
      <point x="512" y="126" type="curve" smooth="yes"/>
      <point x="485" y="126"/>
      <point x="466" y="148"/>
      <point x="466" y="208" type="curve" smooth="yes"/>
      <point x="466" y="276" type="line"/>
      <point x="294" y="276" type="line"/>
      <point x="294" y="208" type="line" smooth="yes"/>
      <point x="294" y="156.061"/>
      <point x="281" y="126"/>
      <point x="244" y="126" type="curve" smooth="yes"/>
      <point x="209" y="126"/>
      <point x="198" y="170"/>
      <point x="198" y="228" type="curve" smooth="yes"/>
      <point x="198" y="302"/>
      <point x="263.72" y="380"/>
    </contour>
  </outline>
</glyph>
<glyph name="omegaiotasub" format="1">
  <advance width="764"/>
  <outline>
    <component base="omega"/>
    <component base="iotasubscriptcmb" xOffset="382"/>
    <contour>
      <point x="382" y="520" type="move" name="aboveLC"/>
    </contour>
  </outline>
</glyph>
<glyph name="omegalatin" format="1">
  <advance width="764"/>
  <outline>
    <contour>
      <point x="240" y="-12" type="curve" smooth="yes"/>
      <point x="300" y="-12"/>
      <point x="350" y="12"/>
      <point x="378" y="84" type="curve"/>
      <point x="382" y="84" type="line"/>
      <point x="410" y="12"/>
      <point x="470" y="-12"/>
      <point x="530" y="-12" type="curve" smooth="yes"/>
      <point x="660" y="-12"/>
      <point x="728" y="92"/>
      <point x="728" y="266" type="curve" smooth="yes"/>
      <point x="728" y="364"/>
      <point x="698" y="442"/>
      <point x="656" y="512" type="curve"/>
      <point x="498" y="456" type="line"/>
      <point x="544" y="378"/>
      <point x="556" y="327"/>
      <point x="556" y="254" type="curve" smooth="yes"/>
      <point x="556" y="173"/>
      <point x="538" y="126"/>
      <point x="511" y="126" type="curve" smooth="yes"/>
      <point x="477" y="126"/>
      <point x="466" y="148"/>
      <point x="466" y="208" type="curve" smooth="yes"/>
      <point x="466" y="340" type="line"/>
      <point x="294" y="340" type="line"/>
      <point x="294" y="208" type="line" smooth="yes"/>
      <point x="294" y="156"/>
      <point x="281" y="126"/>
      <point x="244" y="126" type="curve" smooth="yes"/>
      <point x="209" y="126"/>
      <point x="198" y="170"/>
      <point x="198" y="228" type="curve" smooth="yes"/>
      <point x="198" y="302"/>
      <point x="224" y="372"/>
      <point x="270" y="452" type="curve"/>
      <point x="108" y="512" type="line"/>
      <point x="66" y="442"/>
      <point x="36" y="336"/>
      <point x="36" y="262" type="curve" smooth="yes"/>
      <point x="36" y="86"/>
      <point x="112" y="-12"/>
    </contour>
    <contour>
      <point x="382.0" y="522.0" type="move" name="aboveLC"/>
    </contour>
    <contour>
      <point x="382.0" y="-22.0" type="move" name="belowLC"/>
    </contour>
  </outline>
</glyph>
<glyph name="omegalatinclosed" format="1">
  <advance width="764"/>
  <outline>
    <contour>
      <point x="240" y="-12" type="curve" smooth="yes"/>
      <point x="300" y="-12"/>
      <point x="351" y="12"/>
      <point x="379" y="84" type="curve"/>
      <point x="383" y="84" type="line"/>
      <point x="411" y="12"/>
      <point x="470" y="-12"/>
      <point x="530" y="-12" type="curve" smooth="yes"/>
      <point x="660" y="-12"/>
      <point x="728" y="76"/>
      <point x="728" y="218" type="curve" smooth="yes"/>
      <point x="728" y="348"/>
      <point x="631" y="512"/>
      <point x="382" y="512" type="curve" smooth="yes"/>
      <point x="101" y="512"/>
      <point x="36" y="304"/>
      <point x="36" y="230" type="curve" smooth="yes"/>
      <point x="36" y="54"/>
      <point x="112" y="-12"/>
    </contour>
    <contour>
      <point x="244" y="126" type="curve" smooth="yes"/>
      <point x="209" y="126"/>
      <point x="198" y="170"/>
      <point x="198" y="228" type="curve" smooth="yes"/>
      <point x="198" y="302"/>
      <point x="264" y="380"/>
      <point x="378" y="380" type="curve" smooth="yes"/>
      <point x="480" y="380"/>
      <point x="566" y="327"/>
      <point x="566" y="238" type="curve" smooth="yes"/>
      <point x="566" y="173"/>
      <point x="546" y="126"/>
      <point x="512" y="126" type="curve" smooth="yes"/>
      <point x="485" y="126"/>
      <point x="466" y="148"/>
      <point x="466" y="208" type="curve" smooth="yes"/>
      <point x="466" y="276" type="line"/>
      <point x="294" y="276" type="line"/>
      <point x="294" y="208" type="line" smooth="yes"/>
      <point x="294" y="156"/>
      <point x="281" y="126"/>
    </contour>
    <contour>
      <point x="382" y="-22" type="move" name="belowLC"/>
    </contour>
    <contour>
      <point x="382" y="522" type="move" name="aboveLC"/>
    </contour>
  </outline>
</glyph>
<glyph name="oopen.sups" format="1">
  <advance width="316"/>
  <outline>
    <contour>
      <point x="128" y="360" type="curve" smooth="yes"/>
      <point x="74" y="360"/>
      <point x="34" y="380"/>
      <point x="12" y="398" type="curve"/>
      <point x="60" y="474" type="line"/>
      <point x="72" y="464"/>
      <point x="86" y="454"/>
      <point x="112" y="454" type="curve" smooth="yes"/>
      <point x="148" y="454"/>
      <point x="172" y="486"/>
      <point x="172" y="534" type="curve" smooth="yes"/>
      <point x="172" y="582"/>
      <point x="146" y="614"/>
      <point x="110" y="614" type="curve" smooth="yes"/>
      <point x="96" y="614"/>
      <point x="82" y="608"/>
      <point x="70" y="598" type="curve"/>
      <point x="16" y="674" type="line"/>
      <point x="32" y="690"/>
      <point x="70" y="708"/>
      <point x="122" y="708" type="curve" smooth="yes"/>
      <point x="214" y="708"/>
      <point x="294" y="642"/>
      <point x="294" y="534" type="curve" smooth="yes"/>
      <point x="294" y="424"/>
      <point x="224" y="360"/>
    </contour>
  </outline>
</glyph>
<glyph name="pe" format="1">
	<advance width="582"/>
	<outline>
		<contour>
			<point x="58" y="0" type="line"/>
			<point x="230" y="0" type="line"/>
			<point x="230" y="366" type="line"/>
			<point x="352" y="366" type="line"/>
			<point x="352" y="0" type="line"/>
			<point x="524" y="0" type="line"/>
			<point x="524" y="500" type="line"/>
			<point x="58" y="500" type="line"/>
		</contour>
		<contour>
			<point name="aboveLC" x="291" y="520" type="move"/>
		</contour>
	</outline>
</glyph>
<glyph name="phook" format="1">
  <advance width="580"/>
  <outline>
    <contour>
      <point x="135" y="-218" type="move" name="belowLC"/>
    </contour>
    <contour>
      <point x="277" y="730" type="move" name="aboveLC"/>
    </contour>
    <contour>
      <point x="226" y="442" type="curve"/>
      <point x="228" y="492" type="line"/>
      <point x="234" y="554"/>
      <point x="258" y="574"/>
      <point x="302" y="574" type="curve" smooth="yes"/>
      <point x="318" y="574"/>
      <point x="336" y="570"/>
      <point x="352" y="564" type="curve"/>
      <point x="382" y="690" type="line"/>
      <point x="360" y="698"/>
      <point x="322" y="708"/>
      <point x="276" y="708" type="curve" smooth="yes"/>
      <point x="114" y="708"/>
      <point x="58" y="603"/>
      <point x="58" y="486" type="curve" smooth="yes"/>
      <point x="58" y="-176" type="line"/>
      <point x="230" y="-176" type="line"/>
      <point x="230" y="-38" type="line"/>
      <point x="224" y="38" type="line"/>
      <point x="256" y="6"/>
      <point x="294" y="-12"/>
      <point x="336" y="-12" type="curve" smooth="yes"/>
      <point x="442" y="-12"/>
      <point x="544" y="82"/>
      <point x="544" y="249" type="curve" smooth="yes"/>
      <point x="544" y="396"/>
      <point x="467" y="492"/>
      <point x="349" y="492" type="curve" smooth="yes"/>
      <point x="305" y="492"/>
      <point x="261" y="474"/>
    </contour>
    <contour>
      <point x="230" y="316" type="line"/>
      <point x="252" y="342"/>
      <point x="272" y="352"/>
      <point x="298" y="352" type="curve" smooth="yes"/>
      <point x="344" y="352"/>
      <point x="368" y="321"/>
      <point x="368" y="246" type="curve" smooth="yes"/>
      <point x="368" y="157"/>
      <point x="334" y="128"/>
      <point x="294" y="128" type="curve" smooth="yes"/>
      <point x="272" y="128"/>
      <point x="250" y="134"/>
      <point x="230" y="152" type="curve"/>
    </contour>
  </outline>
</glyph>
<glyph name="rfishhookreversed" format="1">
  <advance width="398"/>
  <outline>
    <contour>
      <point x="340" y="-176" type="line"/>
      <point x="340" y="300" type="line" smooth="yes"/>
      <point x="340" y="412"/>
      <point x="281" y="512"/>
      <point x="122" y="512" type="curve" smooth="yes"/>
      <point x="68" y="512"/>
      <point x="26" y="506"/>
      <point x="0" y="498" type="curve"/>
      <point x="26" y="354" type="line"/>
      <point x="56" y="362"/>
      <point x="66" y="364"/>
      <point x="96" y="364" type="curve" smooth="yes"/>
      <point x="124" y="364"/>
      <point x="168" y="341"/>
      <point x="168" y="262" type="curve" smooth="yes"/>
      <point x="168" y="-176" type="line"/>
    </contour>
  </outline>
</glyph>
<glyph name="rfishhookreversedtail" format="1">
	<advance width="398"/>
	<outline>
		<contour>
			<point x="352" y="-188" type="curve" smooth="yes"/>
			<point x="393" y="-188"/>
			<point x="416" y="-182"/>
			<point x="436" y="-174" type="curve"/>
			<point x="406" y="-48" type="line"/>
			<point x="396" y="-52"/>
			<point x="389" y="-54"/>
			<point x="380" y="-54" type="curve" smooth="yes"/>
			<point x="351" y="-54"/>
			<point x="340" y="-37"/>
			<point x="340" y="10" type="curve" smooth="yes"/>
			<point x="340" y="300" type="line" smooth="yes"/>
			<point x="340" y="412"/>
			<point x="281" y="512"/>
			<point x="122" y="512" type="curve" smooth="yes"/>
			<point x="68" y="512"/>
			<point x="26" y="506"/>
			<point x="0" y="498" type="curve"/>
			<point x="26" y="354" type="line"/>
			<point x="56" y="362"/>
			<point x="66" y="364"/>
			<point x="96" y="364" type="curve" smooth="yes"/>
			<point x="124" y="364"/>
			<point x="168" y="341"/>
			<point x="168" y="262" type="curve" smooth="yes"/>
			<point x="168" y="16" type="line" smooth="yes"/>
			<point x="168" y="-91"/>
			<point x="210" y="-188"/>
		</contour>
		<contour>
			<point name="aboveLC" x="199" y="520" type="move"/>
		</contour>
	</outline>
</glyph>
<glyph name="rturned" format="1">
  <advance width="418"/>
  <outline>
    <component base="r" xScale="-1" yScale="-1" xOffset="418" yOffset="500"/>
    <contour>
      <point x="270" y="520" type="move" name="aboveLC"/>
    </contour>
    <contour>
      <point x="186" y="-20" type="move" name="belowLC"/>
    </contour>
  </outline>
</glyph>
<glyph name="sha" format="1">
	<advance width="824"/>
	<outline>
		<contour>
			<point x="58" y="0" type="line"/>
			<point x="766" y="0" type="line"/>
			<point x="766" y="500" type="line"/>
			<point x="596" y="500" type="line"/>
			<point x="596" y="134" type="line"/>
			<point x="494" y="134" type="line"/>
			<point x="494" y="500" type="line"/>
			<point x="330" y="500" type="line"/>
			<point x="330" y="134" type="line"/>
			<point x="228" y="134" type="line"/>
			<point x="228" y="500" type="line"/>
			<point x="58" y="500" type="line"/>
		</contour>
		<contour>
			<point name="aboveLC" x="412" y="520" type="move"/>
		</contour>
	</outline>
</glyph>
<glyph name="tbar" format="1">
	<advance width="400"/>
	<outline>
		<contour>
			<point x="14" y="220" type="line"/>
			<point x="366" y="220" type="line"/>
			<point x="366" y="300" type="line"/>
			<point x="90" y="300" type="line"/>
			<point x="14" y="294" type="line"/>
		</contour>
		<component base="t"/>
		<contour>
			<point name="aboveLC" x="176" y="660" type="move"/>
		</contour>
		<contour>
			<point name="belowLC" x="230" y="-20" type="move"/>
		</contour>
	</outline>
</glyph>
<glyph name="te" format="1">
	<advance width="504"/>
	<outline>
		<contour>
			<point x="166" y="0" type="line"/>
			<point x="338" y="0" type="line"/>
			<point x="338" y="366" type="line"/>
			<point x="478" y="366" type="line"/>
			<point x="478" y="500" type="line"/>
			<point x="26" y="500" type="line"/>
			<point x="26" y="366" type="line"/>
			<point x="166" y="366" type="line"/>
		</contour>
		<contour>
			<point name="aboveLC" x="252" y="520" type="move"/>
		</contour>
	</outline>
</glyph>
<glyph name="thook" format="1">
  <advance width="400"/>
  <outline>
    <contour>
      <point x="264" y="-12" type="curve" smooth="yes"/>
      <point x="319" y="-12"/>
      <point x="356" y="-2"/>
      <point x="382" y="6" type="curve"/>
      <point x="356" y="130" type="line"/>
      <point x="344" y="126"/>
      <point x="328" y="122"/>
      <point x="312" y="122" type="curve" smooth="yes"/>
      <point x="280" y="122"/>
      <point x="252" y="140"/>
      <point x="252" y="195" type="curve" smooth="yes"/>
      <point x="252" y="366" type="line"/>
      <point x="366" y="366" type="line"/>
      <point x="366" y="500" type="line"/>
      <point x="252" y="500" type="line"/>
      <point x="90" y="500" type="line"/>
      <point x="14" y="494" type="line"/>
      <point x="14" y="366" type="line"/>
      <point x="80" y="366" type="line"/>
      <point x="80" y="192" type="line" smooth="yes"/>
      <point x="80" y="70"/>
      <point x="134" y="-12"/>
    </contour>
    <contour>
      <point x="80" y="472" type="line"/>
      <point x="252" y="472" type="line"/>
      <point x="252" y="522" type="line" smooth="yes"/>
      <point x="252" y="561"/>
      <point x="271" y="574"/>
      <point x="302" y="574" type="curve" smooth="yes"/>
      <point x="307" y="574"/>
      <point x="311" y="574"/>
      <point x="316" y="572" type="curve"/>
      <point x="346" y="698" type="line"/>
      <point x="330" y="704"/>
      <point x="302" y="708"/>
      <point x="268" y="708" type="curve" smooth="yes"/>
      <point x="128" y="708"/>
      <point x="80" y="618"/>
      <point x="80" y="516" type="curve" smooth="yes"/>
    </contour>
  </outline>
</glyph>
<glyph name="tildeacutecmb.cap" format="1">
  <advance width="0"/>
  <outline>
    <contour>
      <point x="-36" y="836" type="line"/>
      <point x="144" y="928" type="line"/>
      <point x="76" y="1022" type="line"/>
      <point x="-92" y="914" type="line"/>
    </contour>
    <contour>
      <point x="-156" y="696" type="curve"/>
      <point x="-76" y="686" type="line"/>
      <point x="-72" y="712"/>
      <point x="-62" y="722"/>
      <point x="-46" y="722" type="curve" smooth="yes"/>
      <point x="-24" y="722"/>
      <point x="6" y="680"/>
      <point x="58" y="680" type="curve" smooth="yes"/>
      <point x="114" y="680"/>
      <point x="152" y="713"/>
      <point x="156" y="798" type="curve"/>
      <point x="76" y="808" type="line"/>
      <point x="72" y="782"/>
      <point x="62" y="772"/>
      <point x="46" y="772" type="curve" smooth="yes"/>
      <point x="24" y="772"/>
      <point x="-6" y="814"/>
      <point x="-58" y="814" type="curve" smooth="yes"/>
      <point x="-114" y="814"/>
      <point x="-152" y="781"/>
    </contour>
    <contour>
      <point x="0.0" y="672.0" type="move" name="_aboveUC"/>
    </contour>
  </outline>
</glyph>
<glyph name="tildeacutecmb" format="1">
	<outline>
		<contour>
			<point x="-26" y="716" type="line"/>
			<point x="134" y="808" type="line"/>
			<point x="66" y="892" type="line"/>
			<point x="-82" y="784" type="line"/>
		</contour>
		<contour>
			<point x="-152" y="578" type="curve"/>
			<point x="-76" y="570" type="line"/>
			<point x="-70" y="596"/>
			<point x="-60" y="606"/>
			<point x="-46" y="606" type="curve" smooth="yes"/>
			<point x="-20" y="606"/>
			<point x="2" y="564"/>
			<point x="56" y="564" type="curve" smooth="yes"/>
			<point x="108" y="564"/>
			<point x="143" y="598"/>
			<point x="152" y="684" type="curve"/>
			<point x="76" y="692" type="line"/>
			<point x="70" y="666"/>
			<point x="60" y="656"/>
			<point x="46" y="656" type="curve" smooth="yes"/>
			<point x="20" y="656"/>
			<point x="-2" y="698"/>
			<point x="-56" y="698" type="curve" smooth="yes"/>
			<point x="-108" y="698"/>
			<point x="-143" y="664"/>
		</contour>
		<contour>
			<point name="_aboveLC" x="0" y="522" type="move"/>
		</contour>
	</outline>
</glyph>
<glyph name="tildeoverlaycmb" format="1">
  <advance width="0"/>
  <outline>
    <component base="tildecmb" yOffset="-398"/>
    <contour>
      <point x="0" y="250" type="move" name="_center"/>
    </contour>
  </outline>
</glyph>
<glyph name="tturned" format="1">
  <advance width="400"/>
  <outline>
    <contour>
      <point x="220" y="-164" type="move" name="belowLC"/>
    </contour>
    <contour>
      <point x="152" y="522" type="move" name="aboveLC"/>
    </contour>
    <contour>
      <point x="244" y="-130" type="move" name="baseLC"/>
    </contour>
    <contour>
      <point x="132" y="512" type="curve" smooth="yes"/>
      <point x="77" y="512"/>
      <point x="40" y="502"/>
      <point x="14" y="494" type="curve"/>
      <point x="40" y="370" type="line"/>
      <point x="52" y="374"/>
      <point x="68" y="378"/>
      <point x="84" y="378" type="curve" smooth="yes"/>
      <point x="116" y="378"/>
      <point x="144" y="360"/>
      <point x="144" y="305" type="curve" smooth="yes"/>
      <point x="144" y="134" type="line"/>
      <point x="30" y="134" type="line"/>
      <point x="30" y="0" type="line"/>
      <point x="144" y="0" type="line"/>
      <point x="144" y="-130" type="line"/>
      <point x="286" y="-130" type="line"/>
      <point x="306" y="0" type="line"/>
      <point x="382" y="6" type="line"/>
      <point x="382" y="134" type="line"/>
      <point x="316" y="134" type="line"/>
      <point x="316" y="308" type="line" smooth="yes"/>
      <point x="316" y="430"/>
      <point x="262" y="512"/>
    </contour>
  </outline>
</glyph>
<glyph name="tugrik" format="1">
	<advance width="540"/>
	<outline>
		<contour>
			<point x="184" y="0" type="line"/>
			<point x="356" y="0" type="line"/>
			<point x="356" y="510" type="line"/>
			<point x="508" y="510" type="line"/>
			<point x="508" y="634" type="line"/>
			<point x="32" y="634" type="line"/>
			<point x="32" y="510" type="line"/>
			<point x="184" y="510" type="line"/>
		</contour>
		<contour>
			<point x="100" y="58" type="line"/>
			<point x="184" y="104" type="line"/>
			<point x="356" y="188" type="line"/>
			<point x="480" y="254" type="line"/>
			<point x="440" y="326" type="line"/>
			<point x="356" y="280" type="line"/>
			<point x="356" y="328" type="line"/>
			<point x="480" y="394" type="line"/>
			<point x="440" y="466" type="line"/>
			<point x="356" y="420" type="line"/>
			<point x="184" y="336" type="line"/>
			<point x="60" y="270" type="line"/>
			<point x="100" y="198" type="line"/>
			<point x="184" y="244" type="line"/>
			<point x="184" y="196" type="line"/>
			<point x="60" y="130" type="line"/>
		</contour>
	</outline>
</glyph>
<glyph name="ubar" format="1">
	<advance width="634"/>
	<outline>
		<contour>
			<point x="14" y="270" type="line"/>
			<point x="616" y="270" type="line"/>
			<point x="616" y="350" type="line"/>
			<point x="90" y="350" type="line"/>
			<point x="14" y="344" type="line"/>
		</contour>
		<component base="u" xOffset="30"/>
		<contour>
			<point name="aboveLC" x="330" y="520" type="move"/>
		</contour>
		<contour>
			<point name="baseLC" x="317" y="0" type="move"/>
		</contour>
		<contour>
			<point name="belowLC" x="317" y="-20" type="move"/>
		</contour>
	</outline>
</glyph>
<glyph name="uhorn" format="1">
  <advance width="578"/>
  <outline>
    <contour>
      <point x="516" y="448" type="line"/>
      <point x="580" y="469"/>
      <point x="626" y="521"/>
      <point x="626" y="602" type="curve" smooth="yes"/>
      <point x="626" y="642"/>
      <point x="610" y="682"/>
      <point x="594" y="702" type="curve"/>
      <point x="468" y="648" type="line"/>
      <point x="475" y="635"/>
      <point x="484" y="614"/>
      <point x="484" y="590" type="curve" smooth="yes"/>
      <point x="484" y="509"/>
      <point x="438" y="500"/>
      <point x="404" y="500" type="curve"/>
    </contour>
    <component base="u"/>
    <contour>
      <point x="300" y="520" type="move" name="aboveLC"/>
    </contour>
    <contour>
      <point x="290" y="-20" type="move" name="belowLC"/>
    </contour>
  </outline>
</glyph>
<glyph name="undertie" format="1">
	<advance width="916"/>
	<outline>
		<contour>
			<point x="458" y="-230" type="curve" smooth="yes"/>
			<point x="614" y="-230"/>
			<point x="778" y="-192"/>
			<point x="916" y="-108" type="curve"/>
			<point x="872" y="-30" type="line"/>
			<point x="742" y="-102"/>
			<point x="576" y="-122"/>
			<point x="458" y="-122" type="curve" smooth="yes"/>
			<point x="340" y="-122"/>
			<point x="174" y="-102"/>
			<point x="44" y="-30" type="curve"/>
			<point x="0" y="-108" type="line"/>
			<point x="138" y="-192"/>
			<point x="302" y="-230"/>
		</contour>
	</outline>
</glyph>
<glyph name="verticallineabovecmb" format="1">
	<outline>
		<component base="verticallinemod" xOffset="-80"/>
		<contour>
			<point name="_aboveLC" x="0" y="522" type="move"/>
		</contour>
	</outline>
</glyph>
<glyph name="vturned" format="1">
	<advance width="544"/>
	<outline>
		<component base="v" xScale="-1" yScale="-1" xOffset="544" yOffset="500"/>
		<contour>
			<point name="aboveLC" x="274" y="520" type="move"/>
		</contour>
		<contour>
			<point name="belowLC" x="274" y="-20" type="move"/>
		</contour>
	</outline>
</glyph>
<glyph name="whook" format="1">
  <advance width="825"/>
  <outline>
    <contour>
      <point x="660" y="0" type="line"/>
      <point x="460" y="0" type="line"/>
      <point x="424" y="174" type="line"/>
      <point x="416" y="220"/>
      <point x="408" y="266"/>
      <point x="400" y="321" type="curve"/>
      <point x="396" y="321" type="line"/>
      <point x="388" y="266"/>
      <point x="382" y="220"/>
      <point x="374" y="174" type="curve"/>
      <point x="340" y="0" type="line"/>
      <point x="144" y="0" type="line"/>
      <point x="24" y="500" type="line"/>
      <point x="194" y="500" type="line"/>
      <point x="232" y="290" type="line"/>
      <point x="240" y="240"/>
      <point x="244" y="190"/>
      <point x="252" y="138" type="curve"/>
      <point x="256" y="138" type="line"/>
      <point x="264" y="190"/>
      <point x="272" y="242"/>
      <point x="284" y="290" type="curve"/>
      <point x="330" y="500" type="line"/>
      <point x="476" y="500" type="line"/>
      <point x="524" y="290" type="line"/>
      <point x="536" y="240"/>
      <point x="544" y="190"/>
      <point x="554" y="138" type="curve"/>
      <point x="558" y="138" type="line"/>
      <point x="566" y="190"/>
      <point x="570" y="240"/>
      <point x="578" y="290" type="curve"/>
      <point x="602" y="429" type="line" smooth="yes"/>
      <point x="621.456" y="551.928"/>
      <point x="706" y="588"/>
      <point x="774" y="588" type="curve" smooth="yes"/>
      <point x="853" y="588"/>
      <point x="910" y="528"/>
      <point x="938" y="486" type="curve"/>
      <point x="838" y="403" type="line"/>
      <point x="830" y="419"/>
      <point x="811.855" y="436"/>
      <point x="793" y="436" type="curve" smooth="yes"/>
      <point x="771.003" y="436"/>
      <point x="756.015" y="424.997"/>
      <point x="735" y="330" type="curve" smooth="yes"/>
    </contour>
  </outline>
</glyph>
<glyph name="wturned" format="1">
	<advance width="798"/>
	<outline>
		<component base="w" xScale="-1" yScale="-1" xOffset="798" yOffset="500"/>
		<contour>
			<point name="aboveLC" x="400" y="520" type="move"/>
		</contour>
		<contour>
			<point name="belowLC" x="400" y="-20" type="move"/>
		</contour>
	</outline>
</glyph>
<glyph name="yhook" format="1">
  <advance width="572"/>
  <outline>
    <contour>
      <point x="132" y="-188" type="curve" smooth="yes"/>
      <point x="256" y="-188"/>
      <point x="310" y="-127"/>
      <point x="362" y="8" type="curve"/>
      <point x="472" y="330" type="line" smooth="yes"/>
      <point x="504" y="423"/>
      <point x="512" y="436"/>
      <point x="536" y="436" type="curve" smooth="yes"/>
      <point x="557" y="436"/>
      <point x="576" y="419"/>
      <point x="585" y="403" type="curve"/>
      <point x="685" y="486" type="line"/>
      <point x="657" y="528"/>
      <point x="600" y="588"/>
      <point x="521" y="588" type="curve" smooth="yes"/>
      <point x="450" y="588"/>
      <point x="383" y="560"/>
      <point x="352" y="444" type="curve" smooth="yes"/>
      <point x="316" y="308" type="line" smooth="yes"/>
      <point x="304" y="260"/>
      <point x="294" y="214"/>
      <point x="284" y="166" type="curve"/>
      <point x="280" y="166" type="line"/>
      <point x="268" y="216"/>
      <point x="258" y="262"/>
      <point x="244" y="308" type="curve" smooth="yes"/>
      <point x="184" y="500" type="line"/>
      <point x="12" y="500" type="line"/>
      <point x="202" y="18" type="line"/>
      <point x="196" y="-4" type="line" smooth="yes"/>
      <point x="186" y="-34"/>
      <point x="164" y="-54"/>
      <point x="118" y="-54" type="curve" smooth="yes"/>
      <point x="108" y="-54"/>
      <point x="95" y="-50"/>
      <point x="86" y="-48" type="curve"/>
      <point x="56" y="-178" type="line"/>
      <point x="78" y="-184"/>
      <point x="98" y="-188"/>
    </contour>
    <contour>
      <point x="238.0" y="-241.0" type="move" name="belowLC"/>
    </contour>
    <contour>
      <point x="276.0" y="522.0" type="move" name="aboveLC"/>
    </contour>
  </outline>
</glyph>
<glyph name="zero.cap" format="1">
	<advance width="540"/>
	<outline>
		<contour>
			<point x="270" y="-12" type="curve" smooth="yes"/>
			<point x="410" y="-12"/>
			<point x="506" y="105.771084337"/>
			<point x="506" y="328" type="curve" smooth="yes"/>
			<point x="506" y="549.69005848"/>
			<point x="410" y="662"/>
			<point x="270" y="662" type="curve" smooth="yes"/>
			<point x="130" y="662"/>
			<point x="34" y="550.666666667"/>
			<point x="34" y="328" type="curve" smooth="yes"/>
			<point x="34" y="105.771084337"/>
			<point x="130" y="-12"/>
		</contour>
		<contour>
			<point x="270" y="120" type="curve" smooth="yes"/>
			<point x="230" y="120"/>
			<point x="196" y="153.28"/>
			<point x="196" y="328" type="curve" smooth="yes"/>
			<point x="196" y="503.066666667"/>
			<point x="230" y="530"/>
			<point x="270" y="530" type="curve" smooth="yes"/>
			<point x="310" y="530"/>
			<point x="344" y="503.066666667"/>
			<point x="344" y="328" type="curve" smooth="yes"/>
			<point x="344" y="153.28"/>
			<point x="310" y="120"/>
		</contour>
	</outline>
</glyph>
